<svg xmlns="http://www.w3.org/2000/svg" viewBox="0 0 519 367"><g id="Vrstva_2" data-name="Vrstva 2"><g id="Vrstva_1-2" data-name="Vrstva 1"><path d="M259.5,367c-67.91,0-131.91-10.9-180.21-30.68C28.16,315.38,0,286.43,0,254.81c0-24.9,17.34-48.17,50.14-67.3,30-17.48,74.18-31.67,122.2-39.14l3.08,19.76C85.68,182.1,20,218.33,20,254.81c0,22.63,24.37,45.6,66.87,63C132.82,336.64,194.13,347,259.5,347s126.68-10.36,172.63-29.19c42.5-17.4,66.87-40.37,66.87-63,0-36.47-62.66-71.7-152.37-85.67l3.08-19.76c48,7.48,89.22,20.67,119.17,38.14,32.79,19.13,50.12,42.4,50.12,67.29,0,31.62-28.16,60.57-79.29,81.51C391.41,356.1,327.41,367,259.5,367Z"/><path d="M210.5,196V160.7h102V196h25V13A12.85,12.85,0,0,0,325.86,0c-.29,0-.57,0-.86,0-6.9,0-12.5,6.21-12.5,13.86V64.31h-102V13.86C210.5,6.21,204.9,0,198,0c-.29,0-.57,0-.86,0A12.85,12.85,0,0,0,185.5,13V196Zm0-104h102V133h-102Z"/><path d="M345.24,184.14v10.51a6.43,6.43,0,0,1-6.49,6.35H313a6.42,6.42,0,0,1-6.48-6.35v-16.8a6.43,6.43,0,0,0-6-6.34c-13.75-1-27.93-1.51-42.44-1.51q-18,0-35.2,1a6.41,6.41,0,0,0-6.12,6.34v17.27a6.43,6.43,0,0,1-6.49,6.35h-25.8a6.42,6.42,0,0,1-6.48-6.35V183a6.45,6.45,0,0,0-7.52-6.28C89.09,189.62,32,220,32,255.5,32,302.72,133.18,341,258,341s226-38.28,226-85.5c0-34.4-53.72-64.06-131.15-77.62A6.44,6.44,0,0,0,345.24,184.14Z"/></g></g></svg>