<svg xmlns="http://www.w3.org/2000/svg" viewBox="0 0 531 401"><g id="Vrstva_2" data-name="Vrstva 2"><g id="Vrstva_1-2" data-name="Vrstva 1"><path d="M231.19,260l-14.38,16a6.06,6.06,0,0,1-4.51,2H138.52a6.05,6.05,0,0,1-5.26-3.05l-8.52-14.9a6.05,6.05,0,0,0-5.26-3.05H98.06A6.06,6.06,0,0,0,92,263.06V393.94A6.06,6.06,0,0,0,98.06,400H120.3a6.06,6.06,0,0,0,4.51-2l14.38-16a6.06,6.06,0,0,1,4.51-2h73.78a6.05,6.05,0,0,1,5.26,3.05l8.52,14.9a6.05,6.05,0,0,0,5.26,3.05h21.42a6.06,6.06,0,0,0,6.06-6.06V264.06a6.06,6.06,0,0,0-6.06-6.06H235.7A6.06,6.06,0,0,0,231.19,260Z"/><path d="M411.19,260l-14.38,16a6.06,6.06,0,0,1-4.51,2H318.52a6.05,6.05,0,0,1-5.26-3.05l-8.52-14.9a6.05,6.05,0,0,0-5.26-3.05H278.06a6.06,6.06,0,0,0-6.06,6.06V393.94a6.06,6.06,0,0,0,6.06,6.06H300.3a6.06,6.06,0,0,0,4.51-2l14.38-16a6.06,6.06,0,0,1,4.51-2h73.78a6.05,6.05,0,0,1,5.26,3.05l8.52,14.9a6.05,6.05,0,0,0,5.26,3.05h21.42a6.06,6.06,0,0,0,6.06-6.06V264.06a6.06,6.06,0,0,0-6.06-6.06H415.7A6.06,6.06,0,0,0,411.19,260Z"/><path d="M498.19,131l-14.38,16a6.06,6.06,0,0,1-4.51,2H405.52a6.05,6.05,0,0,1-5.26-3.05l-8.52-14.9a6.05,6.05,0,0,0-5.26-3.05H365.06a6.06,6.06,0,0,0-6.06,6.06V264.94a6.06,6.06,0,0,0,6.06,6.06H387.3a6.06,6.06,0,0,0,4.51-2l14.38-16a6.06,6.06,0,0,1,4.51-2h73.78a6.05,6.05,0,0,1,5.26,3.05l8.52,14.9a6.05,6.05,0,0,0,5.26,3.05h21.42a6.06,6.06,0,0,0,6.06-6.06V135.06a6.06,6.06,0,0,0-6.06-6.06H502.7A6.06,6.06,0,0,0,498.19,131Z"/><path d="M318.19,131l-14.38,16a6.06,6.06,0,0,1-4.51,2H225.52a6.05,6.05,0,0,1-5.26-3.05l-8.52-14.9a6.05,6.05,0,0,0-5.26-3.05H185.06a6.06,6.06,0,0,0-6.06,6.06V264.94a6.06,6.06,0,0,0,6.06,6.06H207.3a6.06,6.06,0,0,0,4.51-2l14.38-16a6.06,6.06,0,0,1,4.51-2h73.78a6.05,6.05,0,0,1,5.26,3.05l8.52,14.9a6.05,6.05,0,0,0,5.26,3.05h21.42a6.06,6.06,0,0,0,6.06-6.06V135.06a6.06,6.06,0,0,0-6.06-6.06H322.7A6.06,6.06,0,0,0,318.19,131Z"/><path d="M405.19,3,390.81,19a6.06,6.06,0,0,1-4.51,2H312.52A6.05,6.05,0,0,1,307.26,18l-8.52-14.9a6.05,6.05,0,0,0-5.26-3H272.06A6.06,6.06,0,0,0,266,6.06V136.94a6.06,6.06,0,0,0,6.06,6.06H294.3a6.06,6.06,0,0,0,4.51-2l14.38-16a6.06,6.06,0,0,1,4.51-2h73.78a6.05,6.05,0,0,1,5.26,3l8.52,14.9a6.05,6.05,0,0,0,5.26,3.05h21.42a6.06,6.06,0,0,0,6.06-6.06V7.06A6.06,6.06,0,0,0,431.94,1H409.7A6.06,6.06,0,0,0,405.19,3Z"/><path d="M139.19,131l-14.38,16a6.06,6.06,0,0,1-4.51,2H46.52A6.05,6.05,0,0,1,41.26,146l-8.52-14.9A6.05,6.05,0,0,0,27.48,128H6.06A6.06,6.06,0,0,0,0,134.06V264.94A6.06,6.06,0,0,0,6.06,271H28.3a6.06,6.06,0,0,0,4.51-2l14.38-16a6.06,6.06,0,0,1,4.51-2h73.78a6.05,6.05,0,0,1,5.26,3.05l8.52,14.9a6.05,6.05,0,0,0,5.26,3.05h21.42a6.06,6.06,0,0,0,6.06-6.06V135.06a6.06,6.06,0,0,0-6.06-6.06H143.7A6.06,6.06,0,0,0,139.19,131Z"/></g></g></svg>