<?xml version="1.0" encoding="utf-8"?>
<!-- Generator: Adobe Illustrator 24.1.2, SVG Export Plug-In . SVG Version: 6.00 Build 0)  -->
<svg preserveAspectRatio="xMinYMin none" version="1.1" id="Vrstva_1" xmlns="http://www.w3.org/2000/svg" xmlns:xlink="http://www.w3.org/1999/xlink" x="0px" y="0px"
	 viewBox="0 0 300 300" style="enable-background:new 0 0 300 300;" xml:space="preserve">
<g id="Vrstva_2_1_">
	<g id="Vrstva_1-2">
		<path d="M134,105.7h155.2c6,0,10.9,4.9,10.9,10.9v31.6c0,6-4.9,10.9-10.9,10.9H134c-6,0-10.9-4.9-10.9-10.9v-31.6
			C123.1,110.6,128,105.7,134,105.7z"/>
		<path d="M108.2,159.2H14.3c-6,0-10.8-4.8-10.9-10.8c0,0,0,0,0,0l5.6-74.9c0-6,4.9-10.8,10.9-10.8c0,0,0,0,0,0h88.2
			c6,0,10.8,4.8,10.9,10.8c0,0,0,0,0,0v74.9C119,154.4,114.2,159.3,108.2,159.2C108.2,159.2,108.2,159.2,108.2,159.2z"/>
		<path d="M289.1,162.5H8.4c-6,0-7.6,4.8-7.6,10.9L0,196.7c0,6,4.8,10.9,10.8,10.9c0,0,0,0,0,0h7.1c2.2-17.6,18.3-30.1,35.9-27.9
			c14.6,1.8,26.1,13.3,27.9,27.9h134.8c2.2-17.6,18.3-30.1,35.9-27.9c14.6,1.8,26.1,13.3,27.9,27.9h8.7c6,0,10.9-4.8,10.9-10.8
			c0,0,0,0,0,0v-23.4C300,167.3,295.1,162.5,289.1,162.5C289.1,162.5,289.1,162.5,289.1,162.5z"/>
		<circle cx="49.5" cy="211.1" r="26.1"/>
		<circle cx="248.1" cy="211.1" r="26.1"/>
	</g>
</g>
</svg>
