<?xml version="1.0" encoding="utf-8"?>
<!-- Generator: Adobe Illustrator 24.1.2, SVG Export Plug-In . SVG Version: 6.00 Build 0)  -->
<svg preserveAspectRatio="xMinYMin none" version="1.1" id="Vrstva_1" xmlns="http://www.w3.org/2000/svg" xmlns:xlink="http://www.w3.org/1999/xlink" x="0px" y="0px"
	 viewBox="0 0 300 300" style="enable-background:new 0 0 300 300;" xml:space="preserve">
<style type="text/css">
	.st0{fill:#1D1D1B;}
</style>
<g id="Vrstva_2_1_">
	<g id="Vrstva_1-2">
		<path class="st0" d="M262.3,158L156.7,47.5c-3.8-4-10.1-4.2-14.1-0.3c-0.1,0.1-0.2,0.2-0.3,0.3L37.7,157.9
			c-3.2,3.4-8.5,3.5-11.9,0.3c0,0,0,0,0,0l0,0c-3.4-3.2-3.5-8.5-0.3-11.9c0,0,0,0,0,0L143.3,22c3.2-3.4,8.5-3.5,11.9-0.3
			c0.1,0.1,0.2,0.2,0.3,0.3l119,124.4c3.2,3.4,3.1,8.7-0.3,11.9l0,0C270.9,161.5,265.5,161.4,262.3,158z"/>
		<path class="st0" d="M247.8,149.4l-93.3-98.1c-2.6-2.8-7.1-2.9-9.8-0.3c-0.1,0.1-0.2,0.2-0.3,0.3l-93.3,98.1
			c-2.2,2.3-3.4,5.3-3.3,8.4v117.8c0,2.8,2.3,5,5,5h99c2.8,0,5-2.3,5-5V172.2c0-2.5,2.1-4.6,4.6-4.6c0,0,0,0,0,0h56.2
			c1.9,0,3.5,1.6,3.5,3.5v104.6c0,2.8,2.2,5,5,5h20c2.8,0,5-2.3,5-5V157.8C251.1,154.7,249.9,151.7,247.8,149.4z M131.3,174.4v43.3
			c0,1.9-1.6,3.5-3.5,3.5H84.5c-1.9,0-3.5-1.5-3.5-3.5v-43.3c0-1.9,1.6-3.5,3.5-3.5h43.3C129.7,170.9,131.3,172.4,131.3,174.4z"/>
	</g>
</g>
</svg>
