<?xml version="1.0" encoding="utf-8"?>
<!-- Generator: Adobe Illustrator 24.1.2, SVG Export Plug-In . SVG Version: 6.00 Build 0)  -->
<svg preserveAspectRatio="xMinYMin none" version="1.1" id="Vrstva_1" xmlns="http://www.w3.org/2000/svg" xmlns:xlink="http://www.w3.org/1999/xlink" x="0px" y="0px"
	 viewBox="0 0 300 300" style="enable-background:new 0 0 300 300;" xml:space="preserve">
<g id="Vrstva_2_1_">
	<g id="OBJECTS">
		<path d="M4.4,51L4.4,51L4.4,51L4.4,51L4.4,51L4.4,51L4.4,51h0.5l0,0h3.6L9,48.6h281.9h0.6h0.9l0,0l1.1,1l0,0l0,0l0,0l0,0l0,0l0,0
			l0,0L158,189.1c-4.4,4.3-11.5,4.3-15.9,0L4.1,51.2l0,0L4.4,51z M0,78.9L71.1,150L0,221.1V78.9z M288.8,251.1H11.4
			c-2.6,0-5.1-0.9-7.1-2.5L87.1,166l39.1,39.1c13.2,13.2,34.5,13.2,47.7,0c0,0,0,0,0,0L213,166l82.8,82.8c-2,1.7-4.5,2.7-7.1,2.6
			L288.8,251.1z M300,220.7l-70.9-70.9L300,78.9V220.7z"/>
	</g>
</g>
</svg>
