<?xml version="1.0" encoding="utf-8"?>
<!-- Generator: Adobe Illustrator 24.1.2, SVG Export Plug-In . SVG Version: 6.00 Build 0)  -->
<svg preserveAspectRatio="xMinYMin none" version="1.1" id="Vrstva_1" xmlns="http://www.w3.org/2000/svg" xmlns:xlink="http://www.w3.org/1999/xlink" x="0px" y="0px"
	 viewBox="0 0 300 300" style="enable-background:new 0 0 300 300;" xml:space="preserve">
<g id="Vrstva_2_1_">
	<g id="OBJECTS">
		<path d="M148.7,146.3c12.9,0.2,25.3-5,34.3-14.2c9.3-9,14.5-21.4,14.4-34.4c0.1-13-5.1-25.4-14.4-34.4c-9-9.2-21.4-14.4-34.3-14.2
			c-12.9-0.2-25.4,5-34.4,14.2c-9.3,9-14.5,21.5-14.3,34.4c-0.2,12.9,5,25.4,14.3,34.4C123.3,141.3,135.8,146.5,148.7,146.3z"/>
		<path d="M233.8,204.3c-0.3-4.3-0.9-8.5-1.7-12.7c-0.7-4.4-1.8-8.6-3.1-12.8c-1.3-4.2-3.1-8.2-5.3-12c-2.1-3.8-4.8-7.3-7.9-10.3
			c-3.3-3.1-7.2-5.6-11.5-7.2c-4.7-1.8-9.6-2.7-14.6-2.6c-2.9,0.3-5.7,1.4-7.9,3.3l-8.3,5.3c-3.3,2-6.9,3.6-10.7,4.7
			c-8.5,2.8-17.6,2.8-26.1,0c-3.7-1.1-7.3-2.7-10.7-4.7l-8.2-5.3c-2.3-1.9-5-3-7.9-3.3c-5-0.1-9.9,0.8-14.6,2.6
			c-4.3,1.6-8.2,4.1-11.5,7.2c-3,3.1-5.6,6.6-7.6,10.3c-2.2,3.8-4,7.8-5.3,12c-1.3,4.2-2.4,8.5-3.1,12.8c-0.8,4.2-1.3,8.5-1.6,12.7
			c-0.6,3.9-0.6,7.9-0.6,11.9c-0.4,9.5,3.2,18.7,10,25.4c7,6.4,16.2,9.8,25.7,9.4h97.2c9.5,0.4,18.7-3,25.7-9.4
			c6.8-6.7,10.4-15.9,10-25.4C234.3,212.2,234.3,208.1,233.8,204.3z"/>
	</g>
</g>
</svg>
