<svg preserveAspectRatio="xMinYMin none" xmlns="http://www.w3.org/2000/svg" viewBox="0 0 178.96 178.75"><defs><style>.cls-1{fill:#fbbc43;}</style></defs><g id="Vrstva_2" data-name="Vrstva 2"><g id="Vrstva_1-2" data-name="Vrstva 1"><path class="cls-1" d="M83.92,178.75c-1.64-.23-3.28-.5-4.93-.68a86.63,86.63,0,0,1-32.51-10.34,89.43,89.43,0,0,1-44.34-59,86.66,86.66,0,0,1-2-23.14A87.92,87.92,0,0,1,19.19,34.16,88.43,88.43,0,0,1,71.28,1.82,87.39,87.39,0,0,1,95.88.25a87.8,87.8,0,0,1,38.93,12,89,89,0,0,1,32,32.05,89.5,89.5,0,0,1-.37,90.65,88.91,88.91,0,0,1-22.14,25,88,88,0,0,1-36.38,16.84c-3.72.79-7.56,1.05-11.34,1.56-.49.07-1,.23-1.47.34ZM122,139.65a11,11,0,0,0,9.27-3.84c1-1.25,2.32-2.29,3.43-3.48a24.71,24.71,0,0,0,3.4-3.93c4.46-7.49-.51-16.36-7.83-18.75-4.17-1.36-8.43-2.46-12.69-3.5-4.72-1.14-9-.2-12.47,3.37a40.07,40.07,0,0,1-3.36,3.29,2.6,2.6,0,0,1-2.06.54q-25.2-8.11-33.94-33.12c-.55-1.58-.53-2.82,1-3.91a26.73,26.73,0,0,0,2.74-2.69c2.45-2.4,3.92-5.38,3.55-8.72a83.17,83.17,0,0,0-2.42-11.29c-.86-3.33-1.5-6.72-3.9-9.51C61.65,38.21,53,37.21,47.62,43c-1.74,1.88-3.6,3.65-5.43,5.44a9.35,9.35,0,0,0-3,7.32c.14,3.12.36,6.25.67,9.36a76.89,76.89,0,0,0,5.72,22.23,83.41,83.41,0,0,0,32.5,38.89A85,85,0,0,0,122,139.65Z"/></g></g></svg>
