<?xml version="1.0" encoding="utf-8"?>
<!-- Generator: Adobe Illustrator 24.1.2, SVG Export Plug-In . SVG Version: 6.00 Build 0)  -->
<svg preserveAspectRatio="xMinYMin none" version="1.1" id="Vrstva_1" xmlns="http://www.w3.org/2000/svg" xmlns:xlink="http://www.w3.org/1999/xlink" x="0px" y="0px"
	 viewBox="0 0 300 300" style="enable-background:new 0 0 300 300;" xml:space="preserve">
<g id="Vrstva_2_1_">
	<g id="Vrstva_1-2">
		<path d="M179.3,244H280c10.5,0,19,8.5,19,19v2.5c0,10.5-8.5,19-19,19H179.3c-10.5,0-19-8.5-19-19V263
			C160.3,252.5,168.8,244,179.3,244z"/>
		<path d="M136.8,141.1l48.8,84.5c2.6,4.5,1.1,10.3-3.5,12.9l-1.1,0.6c-4.5,2.6-10.3,1.1-12.9-3.5l-48.8-84.5
			c-2.6-4.5-1.1-10.3,3.5-12.9l1.1-0.6C128.4,135,134.2,136.6,136.8,141.1z"/>
		<path d="M118.8,154l-6.9,52.6c-0.9,5-5.7,8.3-10.7,7.3l0,0c-5-0.9-8.3-5.7-7.3-10.7c0,0,0,0,0,0l8-58.1c0.9-5,5.7-8.3,10.7-7.3
			l0,0c1.9,0.6,3.6,1.5,5.1,2.7C117.7,140.5,113.9,148.6,118.8,154z"/>
		<path d="M137.1,221l-28.1-7.4c-2.2,1.8-5.1,2.6-7.9,2.2l0,0c-3.1-0.6-5.8-2.6-7.2-5.4c-3.2,0.4-4.9,4.1-3.3,7.3l18.1,23.2
			c1.2,2.5,4.2,3.5,6.7,2.3c0.1,0,0.2-0.1,0.3-0.2l22.5-13c2.4-1.4,3.2-4.4,1.8-6.8C139.4,222.2,138.4,221.4,137.1,221z"/>
		<path d="M277.7,240.8h-76.6c-4.9,0-8.8-5.1-8.8-11.5l17.1-79.6c0-6.3,4-11.5,8.8-11.5h59.5c4.9,0,8.8,5.1,8.8,11.5v79.6
			C286.6,235.7,282.6,240.8,277.7,240.8z"/>
		<path d="M49.4,190.5c-28-19.5-44.9-54.1-38.2-92C20.3,48.8,68,15.9,117.7,25.1c40.2,7.4,70.6,40.5,74.5,81.2
			c0,0.2,0.1,0.4,0.3,0.6c2.1,2.1,5.5,2.1,7.6,0.1c0.2-0.2,0.4-0.5,0.3-0.8c-4.8-51.1-47.5-90.3-98.9-90.6
			C46.2,15.2,0.9,60.3,1,115.6c0.1,34.5,18,66.6,47.3,84.7l0.5,0.1c0.2,0.1,0.5,0,0.7-0.1c1.2-0.7,5.5-4.5,0.8-9.2L49.4,190.5z"/>
		<path d="M95.2,125.6c-5.1-3.5-6.4-10.4-2.9-15.5s10.4-6.4,15.5-2.9c2.7,1.9,4.5,4.8,4.8,8.1c0,0,0,0,0,0.1c0.3,0.3,0.7,0.3,0.9,0
			c0,0,0-0.1,0-0.1c-0.6-6.7-6.5-11.6-13.2-11c-6.7,0.6-11.6,6.5-11,13.2c0.4,3.8,2.5,7.2,5.7,9.2h0.1c0,0,0.1,0,0.1,0
			c0.3-0.2,0.4-0.6,0.3-0.9C95.4,125.8,95.3,125.7,95.2,125.6L95.2,125.6z"/>
		<path d="M23.2,109.9h22.5c2.6,0,4.7,2.1,4.7,4.7v0.6c0,2.6-2.1,4.7-4.7,4.7H23.2c-2.6,0-4.7-2.1-4.7-4.7v-0.6
			C18.5,112,20.6,109.9,23.2,109.9z"/>
		<path d="M107.3,35.2v23.7c0,2.7-2.2,4.9-4.9,4.9h-0.7c-2.7,0-4.9-2.2-4.9-4.9V35.2c0-2.7,2.2-4.9,4.9-4.9h0.7
			C105.1,30.3,107.3,32.5,107.3,35.2z"/>
		<path d="M46.2,59.8l13.9,13.9c0.8,0.8,0.8,2.1,0,2.9L60,76.8c-0.8,0.8-2.1,0.8-2.9,0L43.1,62.9c-0.8-0.8-0.8-2.1,0-2.9l0.2-0.2
			C44.1,59,45.4,59,46.2,59.8z"/>
		<path d="M158.9,63.5L145,77.4c-0.8,0.8-2.1,0.8-2.9,0l-0.2-0.2c-0.8-0.8-0.8-2.1,0-2.9l13.9-13.9c0.8-0.8,2.1-0.8,2.9,0l0.2,0.2
			C159.7,61.4,159.7,62.7,158.9,63.5z"/>
		<path d="M57,154.2l-13.9,13.9c-0.8,0.8-2.1,0.8-2.9,0l-0.2-0.2c-0.8-0.8-0.8-2.1,0-2.9l13.9-13.9c0.8-0.8,2.1-0.8,2.9,0l0.2,0.2
			C57.8,152.1,57.8,153.4,57,154.2z"/>
	</g>
</g>
</svg>
