<?xml version="1.0" encoding="utf-8"?>
<!-- Generator: Adobe Illustrator 23.0.3, SVG Export Plug-In . SVG Version: 6.00 Build 0)  -->
<svg preserveAspectRatio="xMinYMin none" version="1.1" id="Vrstva_1" xmlns="http://www.w3.org/2000/svg" xmlns:xlink="http://www.w3.org/1999/xlink" x="0px" y="0px"
	 viewBox="0 0 161.9 80.5" style="enable-background:new 0 0 161.9 80.5;" xml:space="preserve">
<style type="text/css">
	.st0{enable-background:new    ;}
</style>
<title>Datový zdroj 1</title>
<g>
	<g id="Vrstva_1-2">
		<g class="st0">
			<path d="M27.1,47.8h-7.8v13.4H5V10.8h23c4.6,0,8.5,0.8,11.9,2.3c3.4,1.5,6,3.7,7.8,6.5c1.8,2.8,2.7,6.1,2.7,9.9
				c0,3.6-0.9,6.8-2.6,9.5c-1.7,2.7-4.1,4.8-7.3,6.4l10.9,15.8H36.2L27.1,47.8z M33.8,24c-1.5-1.3-3.7-1.9-6.6-1.9h-7.9v14.8h7.9
				c2.9,0,5.1-0.6,6.6-1.9c1.5-1.3,2.2-3.1,2.2-5.4C36.1,27.1,35.3,25.3,33.8,24z"/>
			<path d="M92.1,34.9h12.6v20.9c-2.9,2.1-6.2,3.6-9.9,4.8c-3.7,1.1-7.5,1.7-11.2,1.7c-5.3,0-10-1.1-14.3-3.3
				c-4.2-2.2-7.5-5.3-9.9-9.3c-2.4-4-3.6-8.5-3.6-13.5s1.2-9.6,3.6-13.5c2.4-4,5.7-7.1,10-9.3c4.3-2.2,9.1-3.3,14.5-3.3
				c4.7,0,8.9,0.8,12.7,2.4c3.7,1.6,6.9,3.9,9.4,6.8l-9.1,8.2c-3.4-3.7-7.5-5.6-12.2-5.6c-4.3,0-7.8,1.3-10.4,3.9
				c-2.6,2.6-4,6.1-4,10.5c0,2.8,0.6,5.3,1.8,7.5c1.2,2.2,2.9,3.9,5,5.1c2.2,1.2,4.6,1.8,7.4,1.8c2.7,0,5.3-0.6,7.7-1.7V34.9z"/>
			<path d="M124.7,58.9c-4.2-2.2-7.5-5.3-9.9-9.3c-2.4-4-3.6-8.5-3.6-13.5s1.2-9.6,3.6-13.5c2.4-4,5.7-7.1,9.9-9.3
				c4.2-2.2,8.9-3.3,14.2-3.3c4.6,0,8.8,0.8,12.5,2.4c3.7,1.6,6.8,4,9.2,7.1l-9.1,8.2c-3.3-3.9-7.2-5.9-11.9-5.9
				c-2.7,0-5.2,0.6-7.3,1.8c-2.1,1.2-3.8,2.9-5,5.1c-1.2,2.2-1.8,4.7-1.8,7.5c0,2.8,0.6,5.3,1.8,7.5c1.2,2.2,2.8,3.9,5,5.1
				c2.1,1.2,4.6,1.8,7.3,1.8c4.7,0,8.6-2,11.9-5.9l9.1,8.2c-2.4,3.1-5.5,5.4-9.2,7.1c-3.7,1.6-7.8,2.4-12.5,2.4
				C133.6,62.2,128.9,61.1,124.7,58.9z"/>
		</g>
	</g>
</g>
</svg>
