<?xml version="1.0" encoding="utf-8"?>
<!-- Generator: Adobe Illustrator 24.1.2, SVG Export Plug-In . SVG Version: 6.00 Build 0)  -->
<svg preserveAspectRatio="xMinYMin none" version="1.1" id="Vrstva_1" xmlns="http://www.w3.org/2000/svg" xmlns:xlink="http://www.w3.org/1999/xlink" x="0px" y="0px"
	 viewBox="0 0 300 300" style="enable-background:new 0 0 300 300;" xml:space="preserve">
<g id="Vrstva_2_1_">
	<g id="Vrstva_1-2">
		<path d="M221.8,52.3L221.8,52.3c5.6,4.5,6.6,12.7,2.1,18.3L105.2,219.7c-4.5,5.6-12.7,6.6-18.3,2.1h0c-5.6-4.5-6.6-12.7-2.1-18.3
			L203.5,54.3C208,48.7,216.2,47.8,221.8,52.3z"/>
		<path d="M273.7,66.5L193.1,2.3c-4.7-3.7-11.5-2.9-15.2,1.7c0,0,0,0,0,0l-2.8,3.5c-3.7,4.7-2.9,11.5,1.7,15.2l31.2,24.8
			c4.2-1.6,11.5-0.2,15.3,2.8l0,0c3.7,3,6.8,9.8,6.1,14.3l28,22.3c4.7,3.7,11.5,2.9,15.2-1.7c0,0,0,0,0,0l2.8-3.5
			C279.2,77,278.4,70.2,273.7,66.5C273.8,66.5,273.7,66.5,273.7,66.5z"/>
		<path d="M149.9,245.9l-40.7-27.2l-3,3.8c-4.5,5.6-15.1,5.7-20.7,1.2l0,0c-5.6-4.5-8-14.9-3.5-20.5l3-3.8l-35.5-33.5
			c-5.5-4.4-13.5-3.5-17.9,2c-1.7,2.1-2.7,4.7-2.8,7.4l-6.6,111.4c-0.3,7,5.2,12.9,12.2,13.2c1.3,0,2.6-0.1,3.8-0.4l107.1-31.4
			c6.8-1.8,10.8-8.8,9-15.6C153.6,249.9,152,247.6,149.9,245.9z"/>
	</g>
</g>
</svg>
