<?xml version="1.0" encoding="utf-8"?>
<!-- Generator: Adobe Illustrator 24.1.2, SVG Export Plug-In . SVG Version: 6.00 Build 0)  -->
<svg preserveAspectRatio="xMinYMin none" version="1.1" id="Vrstva_1" xmlns="http://www.w3.org/2000/svg" xmlns:xlink="http://www.w3.org/1999/xlink" x="0px" y="0px"
	 viewBox="0 0 300 300" style="enable-background:new 0 0 300 300;" xml:space="preserve">
<g id="Vrstva_2_1_">
	<g id="Vrstva_1-2">
		<path d="M120.4,72.9h168.7c6,0,10.9,4.9,10.9,10.9v63.4c0,6-4.9,10.9-10.9,10.9H120.4c-6,0-10.9-4.9-10.9-10.9V83.7
			C109.5,77.7,114.4,72.9,120.4,72.9z"/>
		<path d="M96.3,158.2h-83c-5.3,0-9.6-4.3-9.6-9.5c0,0,0,0,0,0l5.7-66.2c0-5.3,4.3-9.6,9.6-9.5c0,0,0,0,0,0h77.3
			c5.3,0,9.6,4.2,9.6,9.5c0,0,0,0,0,0v66.2C105.9,153.9,101.6,158.2,96.3,158.2C96.3,158.2,96.3,158.2,96.3,158.2z"/>
		<path d="M290.4,161H11c-5.3,0-11,4.3-11,9.6v20.7c0,5.3,4.3,9.6,9.6,9.6h7c1.9-15.6,16.1-26.7,31.7-24.7
			c12.9,1.6,23.1,11.8,24.7,24.7h153.3c1.9-15.6,16.1-26.6,31.7-24.7c12.9,1.6,23.1,11.8,24.7,24.7h7.7c5.3,0,9.6-4.3,9.6-9.6l0,0
			v-20.7C300,165.3,295.7,161,290.4,161z"/>
		<circle cx="44.4" cy="204" r="23.1"/>
		<circle cx="254.1" cy="204" r="23.1"/>
	</g>
</g>
</svg>
