<?xml version="1.0" encoding="utf-8"?>
<!-- Generator: Adobe Illustrator 24.1.2, SVG Export Plug-In . SVG Version: 6.00 Build 0)  -->
<svg preserveAspectRatio="xMinYMin none" version="1.1" id="Vrstva_1" xmlns="http://www.w3.org/2000/svg" xmlns:xlink="http://www.w3.org/1999/xlink" x="0px" y="0px"
	 viewBox="0 0 300 300" style="enable-background:new 0 0 300 300;" xml:space="preserve">
<g id="Vrstva_2_1_">
	<g id="Vrstva_1-2">
		<circle cx="243.4" cy="187.9" r="35.6"/>
		<path d="M243.8,147.5c18.1,0,25.4,5.2,36.5,19.8h5c8.1,0,14.7-6.1,14.7-13.5V90c0-7.5-6.6-13.5-14.7-13.5H96.6
			c-8.1,0-14.7,6.1-14.7,13.5v63.7c0,7.5,6.6,13.5,14.7,13.5h109.6C215.9,154.6,225.7,147.5,243.8,147.5z"/>
		<path d="M284.1,186.4h6.1c2.1,0,3.9-1.7,3.9-3.9l0,0v-8.2c0-2.1-1.7-3.9-3.9-3.9c0,0,0,0,0,0h-8.9c1.3,4.1,3,8.5,3,13
			C284.2,184.4,284.2,185.4,284.1,186.4z"/>
		<path d="M205.3,170.2l-115.5,0.2c-2.1,0-3.9,1.7-3.9,3.9v8.2c0,2.1,1.7,3.9,3.9,3.9c0,0,0,0,0,0l111.6-0.3c-0.1-1,0.5-1.6,0.5-2.6
			C201.8,178.9,204,174.3,205.3,170.2z"/>
		<path d="M4.1,159.4h73.8c2.2,0,4.1,1.8,4.1,4.1v7.7c0,2.2-1.8,4.1-4.1,4.1H4.1c-2.2,0-4.1-1.8-4.1-4.1v-7.7
			C0,161.2,1.8,159.4,4.1,159.4z"/>
	</g>
</g>
</svg>
