<?xml version="1.0" encoding="utf-8"?>
<!-- Generator: Adobe Illustrator 24.1.2, SVG Export Plug-In . SVG Version: 6.00 Build 0)  -->
<svg preserveAspectRatio="xMinYMin none" version="1.1" id="Vrstva_1" xmlns="http://www.w3.org/2000/svg" xmlns:xlink="http://www.w3.org/1999/xlink" x="0px" y="0px"
	 viewBox="0 0 300 300" style="enable-background:new 0 0 300 300;" xml:space="preserve">
<g id="Vrstva_2_1_">
	<g id="Vrstva_1-2">
		<path d="M130,198.1h141c16.1,0,29.1,13,29.1,29.1l0,0c0,16.1-13,29.1-29.1,29.1H130c-16.1,0-29.1-13-29.1-29.1l0,0
			C100.9,211.1,113.9,198.1,130,198.1z"/>
		<path d="M66.3,51.1l69.1,119.8c4,6.9,1.6,15.8-5.3,19.8l0,0c-6.9,4-15.8,1.6-19.8-5.3L41.3,65.5c-4-6.9-1.6-15.8,5.3-19.8l0,0
			C53.5,41.8,62.4,44.1,66.3,51.1z"/>
		<path d="M41.3,68.7l-9.9,75.5c-1.3,7.1-8.2,11.9-15.4,10.5c0,0,0,0,0,0l0,0c-7.1-1.4-11.8-8.2-10.5-15.4c0,0,0,0,0,0L17,56
			c1.3-7.1,8.2-11.8,15.4-10.5l0,0c2.2,0.4,5.6,2.5,7.3,3.9C39.7,49.4,34.3,61,41.3,68.7z"/>
		<path d="M67.6,163.8l-40.3-10.6c-3.1,2.6-7.3,3.8-11.3,3.2l0,0c-4.4-0.8-8.7-4-10.4-7.8c-4.6,0.6-7,5.8-4.7,10.5l26,33.4
			c1.7,3.5,6,5,9.6,3.3c0.1-0.1,0.3-0.1,0.4-0.2l32.2-18.6c3.4-2,4.6-6.3,2.6-9.8C70.9,165.5,69.4,164.3,67.6,163.8z"/>
		<path d="M269.5,193.4H159.6c-7,0-12.7-7.4-12.7-16.5l24.5-114.3c0-9.1,5.7-16.5,12.7-16.5h85.4c7,0,12.7,7.4,12.7,16.5V177
			C282.2,186.1,276.5,193.4,269.5,193.4z"/>
	</g>
</g>
</svg>
