<svg preserveAspectRatio="xMinYMin none" xmlns="http://www.w3.org/2000/svg" viewBox="0 0 241.32 248.61"><defs><style>.cls-1{fill:#000000;}</style></defs><g id="Vrstva_2" data-name="Vrstva 2"><g id="Vrstva_1-2" data-name="Vrstva 1"><path class="cls-1" d="M227.54,131.92,127.08,26.83a9.52,9.52,0,0,0-13.79,0l-99.48,105a8,8,0,0,1-11.31.3h0a8,8,0,0,1-.31-11.31L114.33,2.5a8,8,0,0,1,11.59,0L239.1,120.86a8,8,0,0,1-.25,11.31h0A8,8,0,0,1,227.54,131.92Z"/><path class="cls-1" d="M213.71,123.76,124.94,30.39a6.62,6.62,0,0,0-9.6,0L26.57,123.76a11.57,11.57,0,0,0-3.18,8v112.1a4.79,4.79,0,0,0,4.79,4.79h94.16a4.8,4.8,0,0,0,4.79-4.79V145.4a4.38,4.38,0,0,1,4.39-4.39H185a3.32,3.32,0,0,1,3.32,3.31v99.5a4.79,4.79,0,0,0,4.78,4.79h19a4.79,4.79,0,0,0,4.79-4.79V131.72A11.57,11.57,0,0,0,213.71,123.76ZM102.86,147.49v41.22A3.32,3.32,0,0,1,99.55,192H58.33A3.32,3.32,0,0,1,55,188.71V147.49a3.31,3.31,0,0,1,3.31-3.31H99.55A3.31,3.31,0,0,1,102.86,147.49Z"/></g></g></svg>
