<svg xmlns="http://www.w3.org/2000/svg" viewBox="0 0 409.37 451.77"><defs><style>.cls-1{fill:#1d1d1b;}.cls-2,.cls-3{fill:none;}.cls-3{stroke:#000;stroke-linecap:round;stroke-linejoin:round;stroke-width:0;}</style></defs><g id="Vrstva_2" data-name="Vrstva 2"><g id="Vrstva_1-2" data-name="Vrstva 1"><ellipse class="cls-1" cx="106.48" cy="412.65" rx="5" ry="2.87"/><ellipse class="cls-1" cx="140.92" cy="420.43" rx="5" ry="2.87"/><ellipse class="cls-1" cx="92.07" cy="416.16" rx="4.86" ry="6.93"/><ellipse class="cls-1" cx="119.22" cy="402.39" rx="5.87" ry="4.12" transform="translate(-295.57 338.53) rotate(-64.74)"/><path class="cls-1" d="M82.16,399.72c0,3.82-2.18,6.92-4.86,6.92s-4.86-3.1-4.86-6.92,4.17-3.93,6.86-3.93S82.16,395.89,82.16,399.72Z"/><ellipse class="cls-1" cx="136.61" cy="404.26" rx="4.86" ry="6.93"/><ellipse class="cls-1" cx="252.76" cy="413.99" rx="5" ry="2.87"/><ellipse class="cls-1" cx="186.87" cy="402.39" rx="5" ry="2.87"/><ellipse class="cls-1" cx="159.43" cy="397.61" rx="5" ry="2.87"/><path class="cls-1" d="M245,399.93c0-3.82,4.18-3.92,6.86-3.92s2.86.1,2.86,3.92-2.17,6.93-4.86,6.93S245,403.76,245,399.93Z"/><ellipse class="cls-1" cx="201.28" cy="398.88" rx="4.86" ry="6.93"/><ellipse class="cls-1" cx="204.78" cy="418.13" rx="4.86" ry="6.93" transform="translate(-231.36 581.08) rotate(-84.39)"/><ellipse class="cls-1" cx="163.74" cy="413.79" rx="4.86" ry="6.93"/><ellipse class="cls-1" cx="99.21" cy="398.99" rx="4.25" ry="2.28" transform="translate(-278.59 236.81) rotate(-52.8)"/><ellipse class="cls-1" cx="181.09" cy="418.35" rx="4.25" ry="2.28" transform="translate(-261.63 309.7) rotate(-52.8)"/><ellipse class="cls-1" cx="69.66" cy="417.29" rx="2.28" ry="4.25" transform="translate(-304.86 220.51) rotate(-52.8)"/><ellipse class="cls-1" cx="58.93" cy="397.33" rx="2.15" ry="4.02" transform="translate(-340.32 353.26) rotate(-75.27)"/><ellipse class="cls-1" cx="122.14" cy="419.38" rx="2.28" ry="4.25" transform="translate(-285.77 263.14) rotate(-52.8)"/><ellipse class="cls-1" cx="235.36" cy="398.66" rx="2.28" ry="4.25" transform="translate(-224.49 345.14) rotate(-52.8)"/><path class="cls-2" d="M112.86,365.05a4.47,4.47,0,1,0,5.11,5.12A4.48,4.48,0,0,0,112.86,365.05Z"/><path class="cls-2" d="M83.69,373.87a4.47,4.47,0,1,0-5.12-5.12A4.49,4.49,0,0,0,83.69,373.87Z"/><path class="cls-2" d="M56.82,370.17a4.47,4.47,0,1,0-3.71,3.7A4.47,4.47,0,0,0,56.82,370.17Z"/><path class="cls-2" d="M143.43,365.05a4.47,4.47,0,1,0,5.12,5.12A4.47,4.47,0,0,0,143.43,365.05Z"/><path class="cls-2" d="M361.81,171.57h0l-.06-.05h0v0h0Z"/><path class="cls-2" d="M45.87,171.53h0l-.06.05h.06Z"/><path class="cls-2" d="M174,365.05a4.47,4.47,0,1,0,5.12,5.12A4.49,4.49,0,0,0,174,365.05Z"/><rect x="376.2" y="176.39" width="1.5" height="2.52" transform="translate(0.76 356.91) rotate(-50.71)"/><rect x="379.69" y="179.25" width="1.5" height="2.52" transform="translate(-0.17 360.66) rotate(-50.71)"/><rect x="383.17" y="182.1" width="1.5" height="2.52" transform="translate(-1.1 364.39) rotate(-50.71)"/><rect x="365.71" y="167.81" width="1.5" height="2.52" transform="translate(3.56 345.64) rotate(-50.71)"/><rect x="369.2" y="170.67" width="1.5" height="2.52" transform="translate(2.63 349.4) rotate(-50.71)"/><rect x="372.68" y="173.51" width="1.5" height="2.52" transform="translate(1.69 353.12) rotate(-50.71)"/><rect x="355.22" y="159.23" width="1.5" height="2.52" transform="translate(6.35 334.37) rotate(-50.71)"/><rect x="358.71" y="162.09" width="1.5" height="2.52" transform="translate(5.42 338.12) rotate(-50.71)"/><rect x="362.19" y="164.93" width="1.5" height="2.52" transform="translate(4.5 341.87) rotate(-50.71)"/><rect x="344.73" y="150.65" width="1.5" height="2.52" transform="translate(9.15 323.11) rotate(-50.71)"/><rect x="348.22" y="153.5" width="1.5" height="2.52" transform="translate(8.22 326.86) rotate(-50.71)"/><rect x="351.7" y="156.35" width="1.5" height="2.52" transform="translate(7.29 330.6) rotate(-50.71)"/><rect x="334.24" y="142.07" width="1.5" height="2.52" transform="translate(11.94 311.85) rotate(-50.71)"/><rect x="337.73" y="144.92" width="1.5" height="2.52" transform="translate(11.01 315.59) rotate(-50.71)"/><rect x="341.21" y="147.77" width="1.5" height="2.52" transform="translate(10.08 319.34) rotate(-50.71)"/><rect x="323.75" y="133.48" width="1.5" height="2.52" transform="translate(14.73 300.58) rotate(-50.71)"/><rect x="327.24" y="136.34" width="1.5" height="2.52" transform="translate(13.8 304.32) rotate(-50.71)"/><rect x="330.72" y="139.19" width="1.5" height="2.52" transform="translate(12.88 308.07) rotate(-50.71)"/><rect x="313.26" y="124.9" width="1.5" height="2.52" transform="translate(17.53 289.32) rotate(-50.71)"/><rect x="316.75" y="127.76" width="1.5" height="2.52" transform="translate(16.6 293.06) rotate(-50.71)"/><rect x="320.23" y="130.61" width="1.5" height="2.52" transform="translate(15.67 296.79) rotate(-50.71)"/><rect x="302.77" y="116.32" width="1.5" height="2.52" transform="translate(20.33 278.05) rotate(-50.71)"/><rect x="306.27" y="119.18" width="1.5" height="2.52" transform="translate(19.39 281.79) rotate(-50.71)"/><rect x="309.75" y="122.03" width="1.5" height="2.52" transform="translate(18.47 285.53) rotate(-50.71)"/><rect x="292.28" y="107.74" width="1.5" height="2.52" transform="translate(23.12 266.78) rotate(-50.71)"/><rect x="295.78" y="110.6" width="1.5" height="2.52" transform="translate(22.19 270.53) rotate(-50.71)"/><rect x="299.26" y="113.44" width="1.5" height="2.52" transform="translate(21.26 274.27) rotate(-50.71)"/><rect x="281.8" y="99.16" width="1.5" height="2.52" transform="translate(25.92 255.52) rotate(-50.71)"/><rect x="285.29" y="102.02" width="1.5" height="2.52" transform="translate(24.99 259.27) rotate(-50.71)"/><rect x="288.77" y="104.86" width="1.5" height="2.52" transform="translate(24.05 263) rotate(-50.71)"/><rect x="271.31" y="90.58" width="1.5" height="2.52" transform="translate(28.71 244.25) rotate(-50.71)"/><rect x="274.8" y="93.43" width="1.5" height="2.52" transform="translate(27.78 248) rotate(-50.71)"/><rect x="278.28" y="96.28" width="1.5" height="2.52" transform="translate(26.85 251.74) rotate(-50.71)"/><rect x="260.82" y="82" width="1.5" height="2.52" transform="translate(31.5 232.98) rotate(-50.71)"/><rect x="264.31" y="84.85" width="1.5" height="2.52" transform="translate(30.57 236.73) rotate(-50.71)"/><rect x="267.79" y="87.7" width="1.5" height="2.52" transform="translate(29.64 240.47) rotate(-50.71)"/><rect x="250.33" y="73.41" width="1.5" height="2.52" transform="translate(34.3 221.72) rotate(-50.71)"/><rect x="253.82" y="76.27" width="1.5" height="2.52" transform="translate(33.37 225.47) rotate(-50.71)"/><rect x="257.3" y="79.12" width="1.5" height="2.52" transform="translate(32.44 229.21) rotate(-50.71)"/><rect x="239.84" y="64.83" width="1.5" height="2.52" transform="translate(37.09 210.45) rotate(-50.71)"/><rect x="243.33" y="67.69" width="1.5" height="2.52" transform="translate(36.16 214.2) rotate(-50.71)"/><rect x="246.81" y="70.54" width="1.5" height="2.52" transform="translate(35.24 217.94) rotate(-50.71)"/><rect x="229.35" y="56.25" width="1.5" height="2.52" transform="translate(39.88 199.18) rotate(-50.71)"/><rect x="232.84" y="59.11" width="1.5" height="2.52" transform="translate(38.96 202.93) rotate(-50.71)"/><rect x="236.32" y="61.96" width="1.5" height="2.52" transform="translate(38.03 206.68) rotate(-50.71)"/><rect x="218.86" y="47.67" width="1.5" height="2.52" transform="translate(42.68 187.92) rotate(-50.71)"/><rect x="222.35" y="50.53" width="1.5" height="2.52" transform="translate(41.75 191.67) rotate(-50.71)"/><rect x="225.83" y="53.37" width="1.5" height="2.52" transform="translate(40.82 195.41) rotate(-50.71)"/><path d="M209.91,41a16.2,16.2,0,0,0-2.55-.75l-.31,1.47a15.56,15.56,0,0,1,2.33.68Z"/><path d="M211.14,43.23a8.44,8.44,0,0,1,1.05.61,6.84,6.84,0,0,1,1,.69l.9-1.21a9.27,9.27,0,0,0-1.1-.75,10.14,10.14,0,0,0-1.15-.67Z"/><path d="M215.69,44.68l-1,1.09c.62.62,1.31,1.12,1.94,1.66l.95-1.16-1-.8c-.16-.14-.33-.26-.46-.38Z"/><polygon points="194.83 42.52 193.74 43.29 194.63 44.49 195.63 43.79 196.69 43.2 196 41.87 194.83 42.52"/><path d="M198.45,42.41a16,16,0,0,1,2.34-.66l-.3-1.47a19.23,19.23,0,0,0-2.57.72Z"/><path d="M202.57,40l.11,1.5a16.43,16.43,0,0,1,2.43,0l.12-1.49A16.88,16.88,0,0,0,202.57,40Z"/><rect x="183.49" y="51.03" width="2.52" height="1.5" transform="translate(9.3 129.44) rotate(-39.53)"/><rect x="186.97" y="48.16" width="2.52" height="1.5" transform="translate(11.93 131) rotate(-39.53)"/><path d="M191.22,45.47l-1,.8.95,1.16,1-.8a9.06,9.06,0,0,0,1-.88l-1-1.09A8,8,0,0,1,191.22,45.47Z"/><rect x="173.04" y="59.66" width="2.52" height="1.5" transform="translate(1.42 124.76) rotate(-39.53)"/><rect x="176.52" y="56.79" width="2.52" height="1.5" transform="translate(4.04 126.32) rotate(-39.53)"/><rect x="179.99" y="53.92" width="2.52" height="1.5" transform="translate(6.66 127.87) rotate(-39.53)"/><rect x="162.59" y="68.28" width="2.52" height="1.5" transform="translate(-6.46 120.08) rotate(-39.53)"/><rect x="166.07" y="65.41" width="2.52" height="1.5" transform="translate(-3.84 121.64) rotate(-39.53)"/><rect x="169.53" y="62.55" width="2.52" height="1.5" transform="translate(-1.22 123.19) rotate(-39.53)"/><rect x="152.13" y="76.91" width="2.52" height="1.5" transform="translate(-14.34 115.4) rotate(-39.53)"/><rect x="155.61" y="74.04" width="2.52" height="1.5" transform="translate(-11.72 116.96) rotate(-39.53)"/><rect x="159.08" y="71.18" width="2.52" height="1.5" transform="translate(-9.11 118.51) rotate(-39.53)"/><rect x="141.68" y="85.54" width="2.52" height="1.5" transform="translate(-22.23 110.72) rotate(-39.53)"/><rect x="145.16" y="82.66" width="2.52" height="1.5" transform="translate(-19.6 112.28) rotate(-39.53)"/><rect x="148.63" y="79.8" width="2.52" height="1.5" transform="translate(-16.99 113.83) rotate(-39.53)"/><rect x="131.23" y="94.16" width="2.52" height="1.5" transform="translate(-30.11 106.04) rotate(-39.53)"/><rect x="134.71" y="91.29" width="2.52" height="1.5" transform="translate(-27.48 107.6) rotate(-39.53)"/><rect x="138.18" y="88.43" width="2.52" height="1.5" transform="translate(-24.87 109.15) rotate(-39.53)"/><rect x="120.78" y="102.79" width="2.52" height="1.5" transform="translate(-37.99 101.36) rotate(-39.53)"/><rect x="124.26" y="99.92" width="2.52" height="1.5" transform="translate(-35.37 102.92) rotate(-39.53)"/><rect x="127.73" y="97.05" width="2.52" height="1.5" transform="translate(-32.75 104.47) rotate(-39.53)"/><rect x="110.33" y="111.41" width="2.52" height="1.5" transform="translate(-45.87 96.68) rotate(-39.53)"/><rect x="113.8" y="108.54" width="2.52" height="1.5" transform="translate(-43.25 98.24) rotate(-39.53)"/><rect x="117.27" y="105.68" width="2.52" height="1.5" transform="translate(-40.63 99.79) rotate(-39.53)"/><rect x="99.87" y="120.04" width="2.52" height="1.5" transform="translate(-53.75 92) rotate(-39.53)"/><rect x="103.35" y="117.17" width="2.52" height="1.5" transform="translate(-51.13 93.56) rotate(-39.53)"/><rect x="106.82" y="114.31" width="2.52" height="1.5" transform="translate(-48.51 95.11) rotate(-39.53)"/><rect x="89.42" y="128.67" width="2.52" height="1.5" transform="translate(-61.63 87.32) rotate(-39.53)"/><rect x="92.9" y="125.79" width="2.52" height="1.5" transform="translate(-59.01 88.88) rotate(-39.53)"/><rect x="96.37" y="122.93" width="2.52" height="1.5" transform="translate(-56.4 90.43) rotate(-39.53)"/><rect x="78.97" y="137.29" width="2.52" height="1.5" transform="translate(-69.51 82.64) rotate(-39.53)"/><rect x="82.45" y="134.42" width="2.52" height="1.5" transform="translate(-66.89 84.2) rotate(-39.53)"/><rect x="85.92" y="131.56" width="2.52" height="1.5" transform="translate(-64.28 85.75) rotate(-39.53)"/><rect x="68.52" y="145.92" width="2.52" height="1.5" transform="translate(-77.4 77.96) rotate(-39.53)"/><rect x="72" y="143.05" width="2.52" height="1.5" transform="translate(-74.77 79.52) rotate(-39.53)"/><rect x="75.46" y="140.18" width="2.52" height="1.5" transform="translate(-72.16 81.07) rotate(-39.53)"/><rect x="58.06" y="154.54" width="2.52" height="1.5" transform="translate(-85.28 73.28) rotate(-39.53)"/><rect x="61.54" y="151.67" width="2.52" height="1.5" transform="translate(-82.65 74.84) rotate(-39.53)"/><rect x="65.01" y="148.81" width="2.52" height="1.5" transform="translate(-80.04 76.39) rotate(-39.53)"/><rect x="47.61" y="163.17" width="2.52" height="1.5" transform="translate(-93.16 68.6) rotate(-39.53)"/><rect x="51.09" y="160.3" width="2.52" height="1.5" transform="translate(-90.54 70.16) rotate(-39.53)"/><rect x="54.56" y="157.44" width="2.52" height="1.5" transform="translate(-87.92 71.71) rotate(-39.53)"/><rect x="37.16" y="171.8" width="2.52" height="1.5" transform="translate(-101.04 63.92) rotate(-39.53)"/><rect x="40.64" y="168.93" width="2.52" height="1.5" transform="translate(-98.42 65.48) rotate(-39.53)"/><rect x="44.11" y="166.06" width="2.52" height="1.5" transform="translate(-95.8 67.03) rotate(-39.53)"/><rect x="26.71" y="180.42" width="2.52" height="1.5" transform="translate(-108.92 59.24) rotate(-39.53)"/><rect x="30.19" y="177.55" width="2.52" height="1.5" transform="translate(-106.3 60.8) rotate(-39.53)"/><rect x="33.66" y="174.69" width="2.52" height="1.5" transform="translate(-103.68 62.35) rotate(-39.53)"/><path d="M16.74,187.78l-1.15.2.18,1.49,1.29-.22c.42-.1.84-.23,1.26-.34l-.45-1.43Z"/><path d="M20.6,186.22a6.75,6.75,0,0,1-1,.56l.66,1.35a9.22,9.22,0,0,0,1.15-.63,9.31,9.31,0,0,0,1.08-.73l-.9-1.2A7.81,7.81,0,0,1,20.6,186.22Z"/><path d="M24,183.49c-.31.27-.65.5-1,.86l1,1.09c.56-.53,1.27-1.07,1.9-1.6l-1-1.15Z"/><path d="M4.39,183.5l-1.16,1a14.62,14.62,0,0,0,1.85,1.84l1-1.15A12.25,12.25,0,0,1,4.39,183.5Z"/><polygon points="7.54 186.24 6.76 187.52 7.9 188.15 9.1 188.67 9.63 187.26 8.56 186.8 7.54 186.24"/><path d="M11.4,187.77l-.32,1.46a7,7,0,0,0,1.28.22,8.26,8.26,0,0,0,1.31.1l0-1.5a6.41,6.41,0,0,1-1.16-.09A7.26,7.26,0,0,1,11.4,187.77Z"/><path d="M1.8,172.79a9,9,0,0,1,.3-1.13l-1.42-.45a6.9,6.9,0,0,0-.34,1.26,7.9,7.9,0,0,0-.22,1.29l1.48.18A7.48,7.48,0,0,1,1.8,172.79Z"/><path d="M1.58,177l-.08-1.16-1.5,0,.09,1.31c.06.43.14.86.22,1.29l1.46-.31C1.71,177.72,1.63,177.34,1.58,177Z"/><path d="M2.29,179.87l-1.4.52A12.7,12.7,0,0,0,2,182.74L3.3,182A11.92,11.92,0,0,1,2.29,179.87Z"/><rect x="7.86" y="161.57" width="2.52" height="1.5" transform="translate(-103.01 44.6) rotate(-40.39)"/><polygon points="7.13 165 6.15 163.85 4.23 165.49 5.22 166.62 7.13 165"/><polygon points="3.36 168.9 4.03 167.94 2.83 167.03 2.09 168.11 1.45 169.25 2.8 169.92 3.36 168.9"/><rect x="18.18" y="152.79" width="2.52" height="1.5" transform="translate(-94.86 49.2) rotate(-40.39)"/><rect x="14.75" y="155.71" width="2.52" height="1.5" transform="translate(-97.58 47.67) rotate(-40.39)"/><rect x="11.32" y="158.62" width="2.52" height="1.5" transform="translate(-100.28 46.14) rotate(-40.39)"/><rect x="28.5" y="144" width="2.52" height="1.5" transform="translate(-86.71 53.79) rotate(-40.39)"/><rect x="25.07" y="146.93" width="2.52" height="1.5" transform="translate(-89.43 52.27) rotate(-40.4)"/><rect x="21.64" y="149.84" width="2.52" height="1.5" transform="translate(-92.13 50.74) rotate(-40.39)"/><rect x="38.82" y="135.22" width="2.52" height="1.5" transform="translate(-78.56 58.39) rotate(-40.4)"/><rect x="35.39" y="138.14" width="2.52" height="1.5" transform="translate(-81.27 56.86) rotate(-40.39)"/><rect x="31.96" y="141.06" width="2.52" height="1.5" transform="translate(-83.98 55.33) rotate(-40.39)"/><rect x="49.15" y="126.44" width="2.52" height="1.5" transform="translate(-70.41 62.98) rotate(-40.39)"/><rect x="45.71" y="129.36" width="2.52" height="1.5" transform="translate(-73.12 61.45) rotate(-40.39)"/><rect x="42.28" y="132.28" width="2.52" height="1.5" transform="translate(-75.83 59.93) rotate(-40.4)"/><rect x="59.47" y="117.66" width="2.52" height="1.5" transform="translate(-62.26 67.58) rotate(-40.39)"/><rect x="56.03" y="120.58" width="2.52" height="1.5" transform="translate(-64.97 66.05) rotate(-40.39)"/><rect x="52.61" y="123.49" width="2.52" height="1.5" transform="translate(-67.67 64.52) rotate(-40.39)"/><rect x="69.79" y="108.87" width="2.52" height="1.5" transform="translate(-54.1 72.17) rotate(-40.39)"/><rect x="66.35" y="111.8" width="2.52" height="1.5" transform="translate(-56.82 70.64) rotate(-40.39)"/><rect x="62.93" y="114.71" width="2.52" height="1.5" transform="translate(-59.52 69.12) rotate(-40.39)"/><rect x="80.11" y="100.09" width="2.52" height="1.5" transform="translate(-45.95 76.77) rotate(-40.39)"/><rect x="76.67" y="103.01" width="2.52" height="1.5" transform="translate(-48.67 75.24) rotate(-40.39)"/><rect x="73.25" y="105.93" width="2.52" height="1.5" transform="translate(-51.37 73.72) rotate(-40.39)"/><rect x="90.43" y="91.31" width="2.52" height="1.5" transform="translate(-37.8 81.37) rotate(-40.4)"/><rect x="86.99" y="94.23" width="2.52" height="1.5" transform="translate(-40.51 79.84) rotate(-40.4)"/><rect x="83.57" y="97.15" width="2.52" height="1.5" transform="translate(-43.22 78.31) rotate(-40.39)"/><rect x="100.75" y="82.53" width="2.52" height="1.5" transform="translate(-29.65 85.96) rotate(-40.39)"/><rect x="97.32" y="85.45" width="2.52" height="1.5" transform="translate(-32.36 84.43) rotate(-40.39)"/><rect x="93.89" y="88.36" width="2.52" height="1.5" transform="translate(-35.07 82.91) rotate(-40.4)"/><rect x="111.07" y="73.74" width="2.52" height="1.5" transform="translate(-21.5 90.55) rotate(-40.39)"/><rect x="107.64" y="76.67" width="2.52" height="1.5" transform="translate(-24.21 89.02) rotate(-40.39)"/><rect x="104.21" y="79.58" width="2.52" height="1.5" transform="translate(-26.91 87.5) rotate(-40.39)"/><rect x="121.39" y="64.96" width="2.52" height="1.5" transform="translate(-13.34 95.15) rotate(-40.4)"/><rect x="117.96" y="67.88" width="2.52" height="1.5" transform="translate(-16.06 93.62) rotate(-40.4)"/><rect x="114.53" y="70.8" width="2.52" height="1.5" transform="translate(-18.76 92.09) rotate(-40.39)"/><rect x="131.72" y="56.18" width="2.52" height="1.5" transform="translate(-5.19 99.74) rotate(-40.39)"/><rect x="128.28" y="59.1" width="2.52" height="1.5" transform="translate(-7.91 98.21) rotate(-40.39)"/><rect x="124.86" y="62.02" width="2.52" height="1.5" transform="translate(-10.61 96.69) rotate(-40.4)"/><rect x="142.04" y="47.4" width="2.52" height="1.5" transform="translate(2.96 104.33) rotate(-40.39)"/><rect x="138.6" y="50.32" width="2.52" height="1.5" transform="translate(0.25 102.81) rotate(-40.39)"/><rect x="135.18" y="53.23" width="2.52" height="1.5" transform="translate(-2.46 101.28) rotate(-40.39)"/><rect x="152.36" y="38.61" width="2.52" height="1.5" transform="translate(11.11 108.94) rotate(-40.4)"/><rect x="148.92" y="41.54" width="2.52" height="1.5" transform="translate(8.4 107.4) rotate(-40.39)"/><rect x="145.5" y="44.45" width="2.52" height="1.5" transform="translate(5.69 105.88) rotate(-40.39)"/><rect x="162.68" y="29.83" width="2.52" height="1.5" transform="translate(19.26 113.53) rotate(-40.39)"/><rect x="159.24" y="32.76" width="2.52" height="1.5" transform="translate(16.55 112) rotate(-40.39)"/><rect x="155.82" y="35.67" width="2.52" height="1.5" transform="translate(13.85 110.47) rotate(-40.39)"/><rect x="173" y="21.05" width="2.52" height="1.5" transform="translate(27.42 118.12) rotate(-40.39)"/><rect x="169.57" y="23.97" width="2.52" height="1.5" transform="translate(24.7 116.6) rotate(-40.4)"/><rect x="166.14" y="26.89" width="2.52" height="1.5" transform="translate(22 115.07) rotate(-40.39)"/><rect x="183.32" y="12.27" width="2.52" height="1.5" transform="translate(35.57 122.72) rotate(-40.4)"/><rect x="179.89" y="15.19" width="2.52" height="1.5" transform="translate(32.85 121.19) rotate(-40.39)"/><rect x="176.46" y="18.1" width="2.52" height="1.5" transform="translate(30.15 119.66) rotate(-40.39)"/><path d="M195,5.15l.42-.41a10.72,10.72,0,0,1,.9-.74l-.9-1.2c-.33.28-.7.52-1,.83l-.48.45-.43.4,1,1.14C194.59,5.49,194.75,5.34,195,5.15Z"/><rect x="190.21" y="6.41" width="2.52" height="1.5" transform="translate(41.01 125.78) rotate(-40.39)"/><rect x="186.78" y="9.32" width="2.52" height="1.5" transform="translate(38.3 124.26) rotate(-40.4)"/><polygon points="208.21 2.29 208.74 0.89 207.49 0.49 206.22 0.2 205.96 1.68 207.1 1.94 208.21 2.29"/><path d="M203,1.54a6.54,6.54,0,0,1,1.17,0l0-1.5a8.16,8.16,0,0,0-1.31,0,8.22,8.22,0,0,0-1.3.15l.24,1.48A7.49,7.49,0,0,1,203,1.54Z"/><path d="M198.91,2.48c.36-.13.72-.28,1.09-.4L199.55.65c-.41.13-.82.3-1.23.45s-.78.38-1.17.57l.7,1.32C198.21,2.82,198.55,2.63,198.91,2.48Z"/><rect x="217.44" y="7.63" width="1.5" height="2.52" transform="translate(70.72 169.95) rotate(-49.86)"/><rect x="213.99" y="4.72" width="1.5" height="2.52" transform="translate(71.72 166.28) rotate(-49.86)"/><path d="M211.83,4.42l1-1.15a8.89,8.89,0,0,0-1-.79,7.91,7.91,0,0,0-1.11-.69l-.73,1.31a7.1,7.1,0,0,1,1,.61A7.89,7.89,0,0,1,211.83,4.42Z"/><rect x="227.8" y="16.37" width="1.5" height="2.52" transform="translate(67.72 180.97) rotate(-49.85)"/><rect x="224.35" y="13.46" width="1.5" height="2.52" transform="translate(68.72 177.3) rotate(-49.85)"/><rect x="220.91" y="10.56" width="1.5" height="2.52" transform="translate(69.72 173.64) rotate(-49.86)"/><rect x="238.16" y="25.11" width="1.5" height="2.52" transform="translate(64.73 191.99) rotate(-49.85)"/><rect x="234.71" y="22.2" width="1.5" height="2.52" transform="translate(65.72 188.32) rotate(-49.85)"/><rect x="231.27" y="19.3" width="1.5" height="2.52" transform="translate(66.72 184.66) rotate(-49.85)"/><rect x="248.52" y="33.84" width="1.5" height="2.52" transform="translate(61.72 203.01) rotate(-49.85)"/><rect x="245.07" y="30.93" width="1.5" height="2.52" transform="translate(62.72 199.34) rotate(-49.85)"/><rect x="241.63" y="28.04" width="1.5" height="2.52" transform="translate(63.72 195.68) rotate(-49.85)"/><rect x="258.88" y="42.58" width="1.5" height="2.52" transform="translate(58.73 214.03) rotate(-49.85)"/><rect x="255.43" y="39.67" width="1.5" height="2.52" transform="translate(59.73 210.37) rotate(-49.86)"/><rect x="251.99" y="36.77" width="1.5" height="2.52" transform="translate(60.72 206.71) rotate(-49.85)"/><rect x="269.24" y="51.32" width="1.5" height="2.52" transform="translate(55.73 225.06) rotate(-49.86)"/><rect x="265.79" y="48.41" width="1.5" height="2.52" transform="translate(56.73 221.39) rotate(-49.86)"/><rect x="262.35" y="45.51" width="1.5" height="2.52" transform="translate(57.73 217.74) rotate(-49.86)"/><rect x="279.6" y="60.06" width="1.5" height="2.52" transform="translate(52.73 236.08) rotate(-49.85)"/><rect x="276.15" y="57.15" width="1.5" height="2.52" transform="translate(53.73 232.41) rotate(-49.85)"/><rect x="272.71" y="54.25" width="1.5" height="2.52" transform="translate(54.73 228.76) rotate(-49.86)"/><rect x="289.96" y="68.79" width="1.5" height="2.52" transform="translate(49.73 247.11) rotate(-49.85)"/><rect x="286.51" y="65.88" width="1.5" height="2.52" transform="translate(50.73 243.43) rotate(-49.85)"/><rect x="283.07" y="62.98" width="1.5" height="2.52" transform="translate(51.72 239.78) rotate(-49.85)"/><rect x="300.31" y="77.53" width="1.5" height="2.52" transform="translate(46.73 258.13) rotate(-49.85)"/><rect x="296.87" y="74.62" width="1.5" height="2.52" transform="translate(47.73 254.46) rotate(-49.85)"/><rect x="293.43" y="71.72" width="1.5" height="2.52" transform="translate(48.72 250.8) rotate(-49.85)"/><rect x="310.67" y="86.27" width="1.5" height="2.52" transform="translate(43.74 269.15) rotate(-49.86)"/><rect x="307.23" y="83.36" width="1.5" height="2.52" transform="translate(44.73 265.48) rotate(-49.86)"/><rect x="303.79" y="80.46" width="1.5" height="2.52" transform="translate(45.73 261.82) rotate(-49.85)"/><rect x="321.03" y="95.01" width="1.5" height="2.52" transform="translate(40.74 280.18) rotate(-49.86)"/><rect x="317.58" y="92.1" width="1.5" height="2.52" transform="translate(41.73 276.5) rotate(-49.85)"/><rect x="314.15" y="89.2" width="1.5" height="2.52" transform="translate(42.73 272.85) rotate(-49.86)"/><rect x="331.39" y="103.74" width="1.5" height="2.52" transform="translate(37.74 291.19) rotate(-49.85)"/><rect x="327.94" y="100.83" width="1.5" height="2.52" transform="translate(38.74 287.53) rotate(-49.85)"/><rect x="324.51" y="97.93" width="1.5" height="2.52" transform="translate(39.73 283.87) rotate(-49.85)"/><rect x="341.75" y="112.48" width="1.5" height="2.52" transform="translate(34.74 302.22) rotate(-49.85)"/><rect x="338.3" y="109.57" width="1.5" height="2.52" transform="translate(35.73 298.55) rotate(-49.85)"/><rect x="334.87" y="106.67" width="1.5" height="2.52" transform="translate(36.73 294.9) rotate(-49.85)"/><rect x="352.11" y="121.22" width="1.5" height="2.52" transform="translate(31.74 313.24) rotate(-49.85)"/><rect x="348.66" y="118.31" width="1.5" height="2.52" transform="translate(32.74 309.57) rotate(-49.85)"/><rect x="345.23" y="115.41" width="1.5" height="2.52" transform="translate(33.73 305.91) rotate(-49.85)"/><rect x="362.47" y="129.96" width="1.5" height="2.52" transform="translate(28.75 324.27) rotate(-49.86)"/><rect x="359.02" y="127.05" width="1.5" height="2.52" transform="translate(29.74 320.6) rotate(-49.86)"/><rect x="355.58" y="124.15" width="1.5" height="2.52" transform="translate(30.73 316.94) rotate(-49.85)"/><rect x="372.83" y="138.69" width="1.5" height="2.52" transform="translate(25.74 335.29) rotate(-49.86)"/><rect x="369.38" y="135.78" width="1.5" height="2.52" transform="translate(26.74 331.62) rotate(-49.85)"/><rect x="365.94" y="132.88" width="1.5" height="2.52" transform="translate(27.74 327.97) rotate(-49.86)"/><rect x="383.19" y="147.43" width="1.5" height="2.52" transform="translate(22.75 346.31) rotate(-49.85)"/><rect x="379.74" y="144.52" width="1.5" height="2.52" transform="translate(23.74 342.64) rotate(-49.85)"/><rect x="376.3" y="141.62" width="1.5" height="2.52" transform="translate(24.74 338.98) rotate(-49.85)"/><rect x="393.55" y="156.17" width="1.5" height="2.52" transform="translate(19.74 357.33) rotate(-49.85)"/><rect x="390.1" y="153.26" width="1.5" height="2.52" transform="translate(20.74 353.66) rotate(-49.85)"/><rect x="386.66" y="150.36" width="1.5" height="2.52" transform="translate(21.74 350) rotate(-49.85)"/><path d="M404.93,167.53l1.14-1a6.42,6.42,0,0,0-.92-1l-1-.82-1,1.15,1,.8A5.33,5.33,0,0,1,404.93,167.53Z"/><rect x="400.46" y="162" width="1.5" height="2.52" transform="translate(17.75 364.7) rotate(-49.86)"/><rect x="397.02" y="159.1" width="1.5" height="2.52" transform="translate(18.74 361.03) rotate(-49.85)"/><path d="M407.62,178.21c-.09.38-.2.76-.3,1.13l1.44.45c.11-.43.23-.84.33-1.27l.21-1.29-1.49-.17Z"/><path d="M407.78,174.05a6.41,6.41,0,0,1,.09,1.16l1.5-.05a8.13,8.13,0,0,0-.1-1.3,9.66,9.66,0,0,0-.22-1.29l-1.47.33A6.44,6.44,0,0,1,407.78,174.05Z"/><polygon points="406.6 170.06 407.07 171.13 408.47 170.6 407.95 169.4 407.31 168.26 406.04 169.04 406.6 170.06"/><polygon points="399.77 187.37 398.66 187.73 399.05 189.18 400.3 188.77 401.5 188.25 400.84 186.91 399.77 187.37"/><path d="M402.43,186l.85,1.24a13.32,13.32,0,0,0,2-1.67l-1.06-1.06A11.06,11.06,0,0,1,402.43,186Z"/><path d="M406.07,182.11a9.11,9.11,0,0,1-.65,1l1.2.89a7.87,7.87,0,0,0,.73-1.08,8.56,8.56,0,0,0,.63-1.15l-1.35-.65A7.76,7.76,0,0,1,406.07,182.11Z"/><path d="M385.92,186.05a13.21,13.21,0,0,0,2.09,1.56l.78-1.28a11,11,0,0,1-1.86-1.39Z"/><polygon points="390.43 187.19 389.85 188.57 391.08 189.02 392.34 189.36 392.66 187.89 391.53 187.59 390.43 187.19"/><path d="M395.64,188.16a6.45,6.45,0,0,1-1.16,0l-.1,1.5a8.07,8.07,0,0,0,1.3,0,9.36,9.36,0,0,0,1.3-.09l-.17-1.49A7.67,7.67,0,0,1,395.64,188.16Z"/><rect x="173.61" y="221.43" width="1.5" height="2.54"/><rect x="173.61" y="216.88" width="1.5" height="2.54"/><polygon points="175.11 212.29 173.61 212.46 173.61 214.89 175.11 214.89 175.11 212.29"/><rect x="173.61" y="235.09" width="1.5" height="2.54"/><rect x="173.61" y="230.54" width="1.5" height="2.54"/><rect x="173.61" y="226.01" width="1.5" height="2.54"/><rect x="173.61" y="248.75" width="1.5" height="2.54"/><rect x="173.61" y="244.2" width="1.5" height="2.54"/><rect x="173.61" y="239.67" width="1.5" height="2.54"/><rect x="173.61" y="262.41" width="1.5" height="2.54"/><rect x="173.61" y="257.86" width="1.5" height="2.54"/><rect x="173.61" y="253.33" width="1.5" height="2.54"/><rect x="173.61" y="276.07" width="1.5" height="2.54"/><rect x="173.61" y="271.52" width="1.5" height="2.54"/><rect x="173.61" y="266.99" width="1.5" height="2.54"/><path d="M169.2,287.15l-.39-1.49h-2.28v1.5C167.36,287.16,168.32,287.17,169.2,287.15Z"/><path d="M173.48,285.17l-1.16-1.1a4.91,4.91,0,0,1-1.8,1.25l.77,1.38A6.07,6.07,0,0,0,173.48,285.17Z"/><path d="M175.1,280.75l-1.49-.3a5.29,5.29,0,0,1-.37,2.16l1.38.78A6.61,6.61,0,0,0,175.1,280.75Z"/><rect x="152.87" y="285.66" width="2.54" height="1.5"/><rect x="157.42" y="285.66" width="2.54" height="1.5"/><rect x="161.95" y="285.66" width="2.54" height="1.5"/><rect x="139.21" y="285.66" width="2.54" height="1.5"/><rect x="143.76" y="285.66" width="2.54" height="1.5"/><rect x="148.29" y="285.66" width="2.54" height="1.5"/><rect x="125.55" y="285.66" width="2.54" height="1.5"/><rect x="130.1" y="285.66" width="2.54" height="1.5"/><rect x="134.63" y="285.66" width="2.54" height="1.5"/><rect x="111.89" y="285.66" width="2.54" height="1.5"/><rect x="116.44" y="285.66" width="2.54" height="1.5"/><rect x="120.97" y="285.66" width="2.54" height="1.5"/><path d="M100.75,287.16l.06-1.5h-.53a9.3,9.3,0,0,1-1.67-.07L98.05,287a10.7,10.7,0,0,0,2,.12Z"/><rect x="102.78" y="285.66" width="2.54" height="1.5"/><rect x="107.32" y="285.66" width="2.54" height="1.5"/><rect x="93.06" y="275.2" width="1.5" height="2.54"/><path d="M94.69,281.87a9,9,0,0,1-.13-2.2l-1.5.13a10.54,10.54,0,0,0,.19,2.69Z"/><path d="M96,286.27,97,285a4.85,4.85,0,0,1-1.58-1.51l-1.27,1A6,6,0,0,0,96,286.27Z"/><rect x="93.06" y="261.54" width="1.5" height="2.54"/><rect x="93.06" y="266.09" width="1.5" height="2.54"/><rect x="93.06" y="270.62" width="1.5" height="2.54"/><rect x="93.06" y="247.89" width="1.5" height="2.54"/><rect x="93.06" y="252.43" width="1.5" height="2.54"/><rect x="93.06" y="256.97" width="1.5" height="2.54"/><rect x="93.06" y="234.23" width="1.5" height="2.54"/><rect x="93.06" y="238.77" width="1.5" height="2.54"/><rect x="93.06" y="243.31" width="1.5" height="2.54"/><rect x="93.06" y="220.57" width="1.5" height="2.54"/><rect x="93.06" y="225.11" width="1.5" height="2.54"/><rect x="93.06" y="229.65" width="1.5" height="2.54"/><path d="M96,208.11,94.87,207a6.28,6.28,0,0,0-1.44,2.26l1.4.73A5.07,5.07,0,0,1,96,208.11Z"/><polygon points="94.56 211.68 93.07 211.33 93.06 213.99 94.56 213.99 94.56 211.68"/><rect x="93.06" y="215.99" width="1.5" height="2.54"/><rect x="105.93" y="205.19" width="2.54" height="1.5"/><rect x="101.38" y="205.19" width="2.54" height="1.5"/><path d="M99.61,206.69l-.34-1.5a6.35,6.35,0,0,0-2.62.55l.81,1.37A5,5,0,0,1,99.61,206.69Z"/><rect x="119.59" y="205.19" width="2.54" height="1.5"/><rect x="115.04" y="205.19" width="2.54" height="1.5"/><rect x="110.51" y="205.19" width="2.54" height="1.5"/><rect x="133.25" y="205.19" width="2.54" height="1.5"/><rect x="128.7" y="205.19" width="2.54" height="1.5"/><rect x="124.17" y="205.19" width="2.54" height="1.5"/><rect x="146.91" y="205.19" width="2.54" height="1.5"/><rect x="142.36" y="205.19" width="2.54" height="1.5"/><rect x="137.83" y="205.19" width="2.54" height="1.5"/><rect x="160.57" y="205.19" width="2.54" height="1.5"/><rect x="156.02" y="205.19" width="2.54" height="1.5"/><rect x="151.49" y="205.19" width="2.54" height="1.5"/><path d="M173.52,210.69l1.46-.57a6.08,6.08,0,0,0-1.08-2.45l-1.24,1A4.75,4.75,0,0,1,173.52,210.69Z"/><path d="M172.35,206.21a6.1,6.1,0,0,0-2.5-1l-.51,1.47a4.84,4.84,0,0,1,2,.75Z"/><polygon points="167.72 205.19 165.15 205.19 165.15 206.69 167.6 206.69 167.72 205.19"/><rect x="225.01" y="199.82" width="2.51" height="1.5"/><path d="M223,201.32v-1.5a9.56,9.56,0,0,0-2.62.41l.43,1.44A7.89,7.89,0,0,1,223,201.32Z"/><path d="M219.12,202.33l-.64-1.36c-.78.37-1.52.81-2.23,1.21l.72,1.31C217.73,203.06,218.41,202.67,219.12,202.33Z"/><rect x="238.52" y="199.82" width="2.51" height="1.5"/><rect x="234.03" y="199.82" width="2.51" height="1.5"/><rect x="229.54" y="199.82" width="2.51" height="1.5"/><rect x="252.04" y="199.82" width="2.51" height="1.5"/><rect x="247.54" y="199.82" width="2.51" height="1.5"/><rect x="243.06" y="199.82" width="2.51" height="1.5"/><rect x="265.55" y="199.82" width="2.51" height="1.5"/><rect x="261.05" y="199.82" width="2.51" height="1.5"/><rect x="256.57" y="199.82" width="2.51" height="1.5"/><rect x="279.07" y="199.82" width="2.51" height="1.5"/><rect x="274.57" y="199.82" width="2.51" height="1.5"/><rect x="270.08" y="199.82" width="2.51" height="1.5"/><rect x="292.58" y="199.82" width="2.51" height="1.5"/><rect x="288.08" y="199.82" width="2.51" height="1.5"/><rect x="283.6" y="199.82" width="2.51" height="1.5"/><rect x="306.1" y="199.82" width="2.51" height="1.5"/><rect x="301.6" y="199.82" width="2.51" height="1.5"/><rect x="297.11" y="199.82" width="2.51" height="1.5"/><path d="M319.7,205.68a6.19,6.19,0,0,0-.72-2.63l-1.32.71a4.81,4.81,0,0,1,.54,2Z"/><path d="M317.63,201.36a6,6,0,0,0-2.39-1.3l-.41,1.44a4.31,4.31,0,0,1,1.8,1Z"/><rect x="310.63" y="199.82" width="2.51" height="1.5"/><rect x="318.21" y="216.71" width="1.5" height="2.51"/><rect x="318.21" y="212.21" width="1.5" height="2.51"/><rect x="318.21" y="207.72" width="1.5" height="2.51"/><rect x="318.21" y="230.22" width="1.5" height="2.51"/><rect x="318.21" y="225.72" width="1.5" height="2.51"/><rect x="318.21" y="221.24" width="1.5" height="2.51"/><rect x="318.21" y="243.74" width="1.5" height="2.51"/><rect x="318.21" y="239.24" width="1.5" height="2.51"/><rect x="318.21" y="234.75" width="1.5" height="2.51"/><rect x="318.21" y="257.25" width="1.5" height="2.51"/><rect x="318.21" y="252.75" width="1.5" height="2.51"/><rect x="318.21" y="248.27" width="1.5" height="2.51"/><rect x="318.21" y="270.77" width="1.5" height="2.51"/><rect x="318.21" y="266.27" width="1.5" height="2.51"/><rect x="318.21" y="261.78" width="1.5" height="2.51"/><rect x="318.21" y="284.28" width="1.5" height="2.51"/><rect x="318.21" y="279.78" width="1.5" height="2.51"/><rect x="318.21" y="275.3" width="1.5" height="2.51"/><rect x="318.21" y="297.79" width="1.5" height="2.51"/><rect x="318.21" y="293.3" width="1.5" height="2.51"/><rect x="318.21" y="288.81" width="1.5" height="2.51"/><rect x="318.21" y="311.31" width="1.5" height="2.51"/><rect x="318.21" y="306.81" width="1.5" height="2.51"/><rect x="318.21" y="302.33" width="1.5" height="2.51"/><rect x="318.21" y="324.82" width="1.5" height="2.51"/><rect x="318.21" y="320.32" width="1.5" height="2.51"/><rect x="318.21" y="315.84" width="1.5" height="2.51"/><rect x="318.21" y="338.34" width="1.5" height="2.51"/><rect x="318.21" y="333.84" width="1.5" height="2.51"/><rect x="318.21" y="329.35" width="1.5" height="2.51"/><rect x="318.21" y="342.87" width="1.5" height="2.51"/><rect x="367" y="343.75" width="1.5" height="2.51"/><path d="M368.5,348.25h-1.41a4.16,4.16,0,0,0-1.87-.45H319.71v-.45h-1.5v.45H41.33a2.64,2.64,0,0,0-1.63.57h-.57V349a2.67,2.67,0,0,0-.45,1.48v32.81a2.65,2.65,0,0,0,2.65,2.65H207.4l-13.53-27.55,175.47,3.48v20.84a4,4,0,0,0,.14-1V352.06a4.27,4.27,0,0,0-1-2.7ZM48,368.75a4.47,4.47,0,1,1,5.11,5.12A4.47,4.47,0,0,1,48,368.75Zm30.57,0a4.47,4.47,0,1,1,5.12,5.12A4.49,4.49,0,0,1,78.57,368.75Zm35.7,5.12a4.47,4.47,0,1,1,3.7-3.7A4.47,4.47,0,0,1,114.27,373.87Zm34.28-3.7a4.47,4.47,0,1,1-5.12-5.12A4.48,4.48,0,0,1,148.55,370.17Zm30.58,0a4.47,4.47,0,1,1-5.12-5.12A4.49,4.49,0,0,1,179.13,370.17Z"/><rect x="367" y="330.23" width="1.5" height="2.51"/><rect x="367" y="334.73" width="1.5" height="2.51"/><rect x="367" y="339.22" width="1.5" height="2.51"/><rect x="367" y="316.72" width="1.5" height="2.51"/><rect x="367" y="321.22" width="1.5" height="2.51"/><rect x="367" y="325.7" width="1.5" height="2.51"/><rect x="367" y="303.2" width="1.5" height="2.51"/><rect x="367" y="307.7" width="1.5" height="2.51"/><rect x="367" y="312.19" width="1.5" height="2.51"/><rect x="367" y="289.69" width="1.5" height="2.51"/><rect x="367" y="294.19" width="1.5" height="2.51"/><rect x="367" y="298.67" width="1.5" height="2.51"/><rect x="367" y="276.17" width="1.5" height="2.51"/><rect x="367" y="280.67" width="1.5" height="2.51"/><rect x="367" y="285.16" width="1.5" height="2.51"/><rect x="367" y="262.66" width="1.5" height="2.51"/><rect x="367" y="267.16" width="1.5" height="2.51"/><rect x="367" y="271.64" width="1.5" height="2.51"/><rect x="367" y="249.15" width="1.5" height="2.51"/><rect x="367" y="253.64" width="1.5" height="2.51"/><rect x="367" y="258.13" width="1.5" height="2.51"/><rect x="367" y="235.63" width="1.5" height="2.51"/><rect x="367" y="240.13" width="1.5" height="2.51"/><rect x="367" y="244.61" width="1.5" height="2.51"/><rect x="367" y="222.12" width="1.5" height="2.51"/><rect x="367" y="226.62" width="1.5" height="2.51"/><rect x="367" y="231.1" width="1.5" height="2.51"/><rect x="367" y="208.6" width="1.5" height="2.51"/><rect x="367" y="213.1" width="1.5" height="2.51"/><rect x="367" y="217.59" width="1.5" height="2.51"/><rect x="367" y="195.09" width="1.5" height="2.51"/><rect x="367" y="199.59" width="1.5" height="2.51"/><rect x="367" y="204.07" width="1.5" height="2.51"/><path d="M367,184.1l1.5,0a19.33,19.33,0,0,0-.24-2.62l-1.48.24A17.84,17.84,0,0,1,367,184.1Z"/><rect x="367" y="186.07" width="1.5" height="2.51"/><rect x="367" y="190.56" width="1.5" height="2.51"/><path d="M361.45,171.29l.25.2.06,0,0,0v0h0l.06.05h0l.09.1.41.45,1.13-1-.44-.49-.12-.12-.11-.1,0,0,0,0-.06-.05-.24-.19-1-.78-.93,1.17Z"/><path d="M364.76,175.69l1.32-.7a19.81,19.81,0,0,0-1.38-2.24l-1.22.87A19.22,19.22,0,0,1,364.76,175.69Z"/><path d="M365.58,177.43a19.11,19.11,0,0,1,.77,2.32l1.45-.39a19.69,19.69,0,0,0-.84-2.49Z"/><rect x="350.59" y="161.05" width="1.5" height="2.51" transform="translate(5.78 336.56) rotate(-51.56)"/><rect x="354.11" y="163.84" width="1.5" height="2.51" transform="translate(4.92 340.38) rotate(-51.56)"/><rect x="357.62" y="166.63" width="1.5" height="2.51" transform="translate(4.06 344.18) rotate(-51.56)"/><rect x="340" y="152.64" width="1.5" height="2.51" transform="translate(8.35 325.09) rotate(-51.56)"/><rect x="343.52" y="155.44" width="1.5" height="2.51" transform="translate(7.5 328.92) rotate(-51.56)"/><rect x="347.04" y="158.23" width="1.5" height="2.51" transform="translate(6.64 332.72) rotate(-51.56)"/><rect x="329.42" y="144.24" width="1.5" height="2.51" transform="translate(10.93 313.62) rotate(-51.56)"/><rect x="332.94" y="147.04" width="1.5" height="2.51" transform="translate(10.08 317.45) rotate(-51.56)"/><rect x="336.45" y="149.83" width="1.5" height="2.51" transform="translate(9.22 321.25) rotate(-51.56)"/><rect x="318.83" y="135.84" width="1.5" height="2.51" transform="translate(13.51 302.16) rotate(-51.56)"/><rect x="322.36" y="138.64" width="1.5" height="2.51" transform="translate(12.65 305.97) rotate(-51.56)"/><rect x="325.87" y="141.42" width="1.5" height="2.51" transform="translate(11.79 309.78) rotate(-51.56)"/><rect x="308.25" y="127.44" width="1.5" height="2.51" transform="translate(16.09 290.69) rotate(-51.56)"/><rect x="311.77" y="130.23" width="1.5" height="2.51" transform="translate(15.23 294.5) rotate(-51.56)"/><rect x="315.28" y="133.02" width="1.5" height="2.51" transform="translate(14.37 298.31) rotate(-51.56)"/><rect x="297.66" y="119.03" width="1.5" height="2.51" transform="translate(18.66 279.22) rotate(-51.56)"/><rect x="301.19" y="121.83" width="1.5" height="2.51" transform="translate(17.81 283.04) rotate(-51.56)"/><rect x="304.7" y="124.62" width="1.5" height="2.51" transform="translate(16.95 286.84) rotate(-51.56)"/><rect x="287.08" y="110.63" width="1.5" height="2.51" transform="translate(21.24 267.75) rotate(-51.56)"/><rect x="290.6" y="113.43" width="1.5" height="2.51" transform="translate(20.38 271.57) rotate(-51.56)"/><rect x="294.11" y="116.22" width="1.5" height="2.51" transform="translate(19.53 275.37) rotate(-51.56)"/><rect x="276.49" y="102.23" width="1.5" height="2.51" transform="translate(23.82 256.28) rotate(-51.56)"/><rect x="280.02" y="105.03" width="1.5" height="2.51" transform="translate(22.96 260.1) rotate(-51.56)"/><rect x="283.53" y="107.81" width="1.5" height="2.51" transform="translate(22.1 263.91) rotate(-51.56)"/><rect x="265.91" y="93.83" width="1.5" height="2.51" transform="translate(26.4 244.81) rotate(-51.56)"/><rect x="269.43" y="96.62" width="1.5" height="2.51" transform="translate(25.54 248.63) rotate(-51.56)"/><rect x="272.94" y="99.41" width="1.5" height="2.51" transform="translate(24.68 252.44) rotate(-51.56)"/><rect x="255.32" y="85.42" width="1.5" height="2.51" transform="translate(28.97 233.34) rotate(-51.55)"/><rect x="258.85" y="88.22" width="1.5" height="2.51" transform="translate(28.11 237.16) rotate(-51.55)"/><rect x="262.36" y="91.01" width="1.5" height="2.51" transform="translate(27.26 240.97) rotate(-51.56)"/><rect x="244.74" y="77.02" width="1.5" height="2.51" transform="translate(31.55 221.88) rotate(-51.56)"/><rect x="248.26" y="79.82" width="1.5" height="2.51" transform="translate(30.69 225.69) rotate(-51.56)"/><rect x="251.77" y="82.61" width="1.5" height="2.51" transform="translate(29.83 229.5) rotate(-51.55)"/><rect x="234.15" y="68.62" width="1.5" height="2.51" transform="translate(34.13 210.41) rotate(-51.56)"/><rect x="237.68" y="71.41" width="1.5" height="2.51" transform="translate(33.27 214.23) rotate(-51.56)"/><rect x="241.19" y="74.2" width="1.5" height="2.51" transform="translate(32.41 218.03) rotate(-51.56)"/><rect x="223.57" y="60.21" width="1.5" height="2.51" transform="translate(36.7 198.94) rotate(-51.55)"/><rect x="227.09" y="63.01" width="1.5" height="2.51" transform="translate(35.84 202.75) rotate(-51.55)"/><rect x="230.6" y="65.8" width="1.5" height="2.51" transform="translate(34.99 206.56) rotate(-51.56)"/><rect x="212.98" y="51.81" width="1.5" height="2.51" transform="translate(39.28 187.47) rotate(-51.56)"/><rect x="216.51" y="54.61" width="1.5" height="2.51" transform="translate(38.42 191.29) rotate(-51.56)"/><rect x="220.02" y="57.4" width="1.5" height="2.51" transform="translate(37.57 195.09) rotate(-51.55)"/><path d="M200.48,49.51a6.51,6.51,0,0,1,1.15-.31,9.62,9.62,0,0,1,1.18-.18l-.14-1.49a10.47,10.47,0,0,0-1.35.2,10.13,10.13,0,0,0-1.31.35Z"/><path d="M204.7,49a10.88,10.88,0,0,1,2.34.45L207.5,48a12.85,12.85,0,0,0-2.67-.51Z"/><path d="M211.73,50.39a12.25,12.25,0,0,0-2.26-1.52l-.69,1.32a11.4,11.4,0,0,1,2,1.34Z"/><rect x="189.02" y="55.19" width="2.51" height="1.5" transform="translate(6.47 130.44) rotate(-38.45)"/><rect x="192.55" y="52.39" width="2.51" height="1.5" transform="translate(8.97 132.02) rotate(-38.44)"/><path d="M196.76,51.64a8.5,8.5,0,0,1,.94-.74,8.11,8.11,0,0,1,1-.63L198,49a7.25,7.25,0,0,0-1.16.72,8.59,8.59,0,0,0-1.07.84Z"/><rect x="178.44" y="63.59" width="2.51" height="1.5" transform="translate(-1.05 125.67) rotate(-38.44)"/><rect x="181.96" y="60.79" width="2.51" height="1.5" transform="translate(1.45 127.25) rotate(-38.44)"/><rect x="185.47" y="58.01" width="2.51" height="1.5" transform="translate(3.95 128.84) rotate(-38.44)"/><rect x="167.85" y="71.99" width="2.51" height="1.5" transform="translate(-8.57 120.91) rotate(-38.44)"/><rect x="171.38" y="69.2" width="2.51" height="1.5" transform="translate(-6.07 122.5) rotate(-38.44)"/><rect x="174.89" y="66.41" width="2.51" height="1.5" transform="translate(-3.57 124.08) rotate(-38.44)"/><rect x="157.27" y="80.4" width="2.51" height="1.5" transform="translate(-16.09 116.15) rotate(-38.44)"/><rect x="160.79" y="77.6" width="2.51" height="1.5" transform="translate(-13.59 117.74) rotate(-38.44)"/><rect x="164.3" y="74.81" width="2.51" height="1.5" transform="translate(-11.09 119.32) rotate(-38.44)"/><rect x="146.68" y="88.8" width="2.51" height="1.5" transform="translate(-23.61 111.39) rotate(-38.44)"/><rect x="150.21" y="86" width="2.51" height="1.5" transform="translate(-21.1 112.98) rotate(-38.44)"/><rect x="153.72" y="83.21" width="2.51" height="1.5" transform="translate(-18.61 114.56) rotate(-38.44)"/><rect x="136.1" y="97.2" width="2.51" height="1.5" transform="translate(-31.13 106.63) rotate(-38.44)"/><rect x="139.62" y="94.41" width="2.51" height="1.5" transform="translate(-28.62 108.22) rotate(-38.44)"/><rect x="143.13" y="91.62" width="2.51" height="1.5" transform="translate(-26.13 109.8) rotate(-38.45)"/><rect x="125.51" y="105.61" width="2.51" height="1.5" transform="translate(-38.65 101.87) rotate(-38.44)"/><rect x="129.04" y="102.81" width="2.51" height="1.5" transform="translate(-36.14 103.46) rotate(-38.44)"/><rect x="132.55" y="100.02" width="2.51" height="1.5" transform="translate(-33.65 105.03) rotate(-38.44)"/><rect x="114.93" y="114.01" width="2.51" height="1.5" transform="translate(-46.16 97.12) rotate(-38.45)"/><rect x="118.45" y="111.21" width="2.51" height="1.5" transform="translate(-43.66 98.7) rotate(-38.44)"/><rect x="121.97" y="108.42" width="2.51" height="1.5" transform="translate(-41.17 100.28) rotate(-38.44)"/><rect x="104.34" y="122.41" width="2.51" height="1.5" transform="translate(-53.68 92.36) rotate(-38.44)"/><rect x="107.87" y="119.61" width="2.51" height="1.5" transform="translate(-51.18 93.94) rotate(-38.44)"/><rect x="111.38" y="116.83" width="2.51" height="1.5" transform="translate(-48.69 95.52) rotate(-38.44)"/><rect x="93.76" y="130.81" width="2.51" height="1.5" transform="translate(-61.2 87.6) rotate(-38.45)"/><rect x="97.28" y="128.02" width="2.51" height="1.5" transform="translate(-58.7 89.19) rotate(-38.45)"/><rect x="100.8" y="125.23" width="2.51" height="1.5" transform="translate(-56.2 90.76) rotate(-38.44)"/><rect x="83.17" y="139.22" width="2.51" height="1.5" transform="translate(-68.72 82.84) rotate(-38.45)"/><rect x="86.7" y="136.42" width="2.51" height="1.5" transform="translate(-66.22 84.43) rotate(-38.45)"/><rect x="90.21" y="133.63" width="2.51" height="1.5" transform="translate(-63.72 86) rotate(-38.44)"/><rect x="72.59" y="147.62" width="2.51" height="1.5" transform="translate(-76.24 78.07) rotate(-38.44)"/><rect x="76.11" y="144.82" width="2.51" height="1.5" transform="translate(-73.74 79.66) rotate(-38.44)"/><rect x="79.63" y="142.03" width="2.51" height="1.5" transform="translate(-71.24 81.25) rotate(-38.45)"/><rect x="62.01" y="156.02" width="2.51" height="1.5" transform="translate(-83.76 73.32) rotate(-38.44)"/><rect x="65.53" y="153.22" width="2.51" height="1.5" transform="translate(-81.26 74.9) rotate(-38.44)"/><rect x="69.04" y="150.44" width="2.51" height="1.5" transform="translate(-78.76 76.48) rotate(-38.44)"/><rect x="51.42" y="164.42" width="2.51" height="1.5" transform="translate(-91.28 68.56) rotate(-38.45)"/><rect x="54.94" y="161.63" width="2.51" height="1.5" transform="translate(-88.78 70.15) rotate(-38.45)"/><rect x="58.46" y="158.84" width="2.51" height="1.5" transform="translate(-86.28 71.72) rotate(-38.44)"/><path d="M44.08,173.72l-1.23-.86a21.2,21.2,0,0,0-1.36,2.24l1.33.7A19.18,19.18,0,0,1,44.08,173.72Z"/><line class="cls-3" x1="45.87" y1="171.53" x2="45.87" y2="171.53"/><path d="M45.68,171.74l.1-.12,0-.05,0,0h0l.06-.05h0l.23-.18,1-.78-.93-1.18-1,.78-.25.2h0l-.12.11,0,0-.05.06-.11.12-.44.49,1.13,1Z"/><rect x="47.87" y="167.24" width="2.51" height="1.5" transform="translate(-93.8 66.97) rotate(-38.45)"/><rect x="39.13" y="186.2" width="1.5" height="2.51"/><path d="M40.85,181.79l-1.48-.23a21.06,21.06,0,0,0-.23,2.62l1.5,0A21.72,21.72,0,0,1,40.85,181.79Z"/><path d="M42,177.58,40.6,177a20.23,20.23,0,0,0-.81,2.5l1.45.37A19.58,19.58,0,0,1,42,177.58Z"/><rect x="39.13" y="199.71" width="1.5" height="2.51"/><rect x="39.13" y="195.21" width="1.5" height="2.51"/><rect x="39.13" y="190.73" width="1.5" height="2.51"/><rect x="39.13" y="213.22" width="1.5" height="2.51"/><rect x="39.13" y="208.72" width="1.5" height="2.51"/><rect x="39.13" y="204.24" width="1.5" height="2.51"/><rect x="39.13" y="226.74" width="1.5" height="2.51"/><rect x="39.13" y="222.24" width="1.5" height="2.51"/><rect x="39.13" y="217.76" width="1.5" height="2.51"/><rect x="39.13" y="240.25" width="1.5" height="2.51"/><rect x="39.13" y="235.75" width="1.5" height="2.51"/><rect x="39.13" y="231.27" width="1.5" height="2.51"/><rect x="39.13" y="253.77" width="1.5" height="2.51"/><rect x="39.13" y="249.27" width="1.5" height="2.51"/><rect x="39.13" y="244.78" width="1.5" height="2.51"/><rect x="39.13" y="267.28" width="1.5" height="2.51"/><rect x="39.13" y="262.78" width="1.5" height="2.51"/><rect x="39.13" y="258.3" width="1.5" height="2.51"/><rect x="39.13" y="280.8" width="1.5" height="2.51"/><rect x="39.13" y="276.3" width="1.5" height="2.51"/><rect x="39.13" y="271.81" width="1.5" height="2.51"/><rect x="39.13" y="294.31" width="1.5" height="2.51"/><rect x="39.13" y="289.81" width="1.5" height="2.51"/><rect x="39.13" y="285.33" width="1.5" height="2.51"/><rect x="39.13" y="307.83" width="1.5" height="2.51"/><rect x="39.13" y="303.33" width="1.5" height="2.51"/><rect x="39.13" y="298.84" width="1.5" height="2.51"/><rect x="39.13" y="321.34" width="1.5" height="2.51"/><rect x="39.13" y="316.84" width="1.5" height="2.51"/><rect x="39.13" y="312.36" width="1.5" height="2.51"/><rect x="39.13" y="334.85" width="1.5" height="2.51"/><rect x="39.13" y="330.36" width="1.5" height="2.51"/><rect x="39.13" y="325.87" width="1.5" height="2.51"/><rect x="39.13" y="343.87" width="1.5" height="2.51"/><rect x="39.13" y="339.39" width="1.5" height="2.51"/><rect x="215.11" y="338.96" width="1.5" height="2.51"/><rect x="215.11" y="343.45" width="1.5" height="2.51"/><rect x="215.11" y="325.44" width="1.5" height="2.51"/><rect x="215.11" y="329.94" width="1.5" height="2.51"/><rect x="215.11" y="334.42" width="1.5" height="2.51"/><rect x="215.11" y="311.93" width="1.5" height="2.51"/><rect x="215.11" y="316.43" width="1.5" height="2.51"/><rect x="215.11" y="320.91" width="1.5" height="2.51"/><rect x="215.11" y="298.41" width="1.5" height="2.51"/><rect x="215.11" y="302.91" width="1.5" height="2.51"/><rect x="215.11" y="307.4" width="1.5" height="2.51"/><rect x="215.11" y="284.9" width="1.5" height="2.51"/><rect x="215.11" y="289.4" width="1.5" height="2.51"/><rect x="215.11" y="293.88" width="1.5" height="2.51"/><rect x="215.11" y="271.38" width="1.5" height="2.51"/><rect x="215.11" y="275.88" width="1.5" height="2.51"/><rect x="215.11" y="280.37" width="1.5" height="2.51"/><rect x="215.11" y="257.87" width="1.5" height="2.51"/><rect x="215.11" y="262.37" width="1.5" height="2.51"/><rect x="215.11" y="266.85" width="1.5" height="2.51"/><rect x="215.11" y="244.35" width="1.5" height="2.51"/><rect x="215.11" y="248.85" width="1.5" height="2.51"/><rect x="215.11" y="253.34" width="1.5" height="2.51"/><rect x="215.11" y="230.84" width="1.5" height="2.51"/><rect x="215.11" y="235.34" width="1.5" height="2.51"/><rect x="215.11" y="239.82" width="1.5" height="2.51"/><rect x="215.11" y="217.33" width="1.5" height="2.51"/><rect x="215.11" y="221.82" width="1.5" height="2.51"/><rect x="215.11" y="226.31" width="1.5" height="2.51"/><rect x="215.11" y="203.81" width="1.5" height="2.51"/><rect x="215.11" y="208.31" width="1.5" height="2.51"/><rect x="215.11" y="212.79" width="1.5" height="2.51"/><path d="M193.87,358.35,207.4,385.9l19.81,40.32H363.12c3.43,0,6.22-1.8,6.22-4.05V361.83Z"/><rect x="205.48" y="309.62" width="2" height="148.55" transform="translate(-141.74 121.69) rotate(-24.75)"/></g></g></svg>